<?xml version="1.0" encoding="us-ascii" standalone="no"?><svg xmlns="http://www.w3.org/2000/svg" xmlns:xlink="http://www.w3.org/1999/xlink" contentStyleType="text/css" height="1031px" preserveAspectRatio="none" style="width:698px;height:1031px;background:#FFFFFF;" version="1.1" viewBox="0 0 698 1031" width="698px" zoomAndPan="magnify"><defs/><g><!--class Mastermind--><g id="elem_Mastermind"><rect codeLine="1" fill="#F1F1F1" height="145.7813" id="Mastermind" rx="2.5" ry="2.5" style="stroke:#181818;stroke-width:0.5;" width="221" x="417" y="7"/><ellipse cx="480.75" cy="23" fill="#ADD1B2" rx="11" ry="11" style="stroke:#181818;stroke-width:1.0;"/><path d="M483.0938,18.6719 C482.1563,18.2344 481.5625,18.0938 480.6875,18.0938 C478.0625,18.0938 476.0625,20.1719 476.0625,22.8906 L476.0625,24.0156 C476.0625,26.5938 478.1719,28.4844 481.0625,28.4844 C482.2813,28.4844 483.4375,28.1875 484.1875,27.6406 C484.7656,27.2344 485.0938,26.7813 485.0938,26.3906 C485.0938,25.9375 484.7031,25.5469 484.2344,25.5469 C484.0156,25.5469 483.8125,25.625 483.625,25.8125 C483.1719,26.2969 483.1719,26.2969 482.9844,26.3906 C482.5625,26.6563 481.875,26.7813 481.1094,26.7813 C479.0625,26.7813 477.7656,25.6875 477.7656,23.9844 L477.7656,22.8906 C477.7656,21.1094 479.0156,19.7969 480.75,19.7969 C481.3281,19.7969 481.9375,19.9531 482.4063,20.2031 C482.8906,20.4844 483.0625,20.7031 483.1563,21.1094 C483.2188,21.5156 483.25,21.6406 483.3906,21.7656 C483.5313,21.9063 483.7656,22.0156 483.9844,22.0156 C484.25,22.0156 484.5156,21.875 484.6875,21.6563 C484.7969,21.5 484.8281,21.3125 484.8281,20.8906 L484.8281,19.4688 C484.8281,19.0313 484.8125,18.9063 484.7188,18.75 C484.5625,18.4844 484.2813,18.3438 483.9844,18.3438 C483.6875,18.3438 483.4844,18.4375 483.2656,18.75 L483.0938,18.6719 Z " fill="#000000"/><text fill="#000000" font-family="sans-serif" font-size="14" lengthAdjust="spacing" textLength="85" x="501.25" y="27.8467">Mastermind</text><line style="stroke:#181818;stroke-width:0.5;" x1="418" x2="637" y1="39" y2="39"/><line style="stroke:#181818;stroke-width:0.5;" x1="418" x2="637" y1="47" y2="47"/><rect fill="#F24D5C" height="6" style="stroke:#C82930;stroke-width:1.0;" width="6" x="425" y="57.6484"/><text fill="#000000" font-family="sans-serif" font-size="14" lengthAdjust="spacing" textLength="123" x="437" y="63.9951">initYesNoDialog()</text><rect fill="#F24D5C" height="6" style="stroke:#C82930;stroke-width:1.0;" width="6" x="425" y="73.9453"/><text fill="#000000" font-family="sans-serif" font-size="14" lengthAdjust="spacing" textLength="76" x="437" y="80.292">initGame()</text><rect fill="#F24D5C" height="6" style="stroke:#C82930;stroke-width:1.0;" width="6" x="425" y="90.2422"/><text fill="#000000" font-family="sans-serif" font-size="14" lengthAdjust="spacing" textLength="79" x="437" y="96.5889">initResult()</text><rect fill="#F24D5C" height="6" style="stroke:#C82930;stroke-width:1.0;" width="6" x="425" y="106.5391"/><text fill="#000000" font-family="sans-serif" font-size="14" lengthAdjust="spacing" textLength="70" x="437" y="112.8857">initError()</text><rect fill="#F24D5C" height="6" style="stroke:#C82930;stroke-width:1.0;" width="6" x="425" y="122.8359"/><text fill="#000000" font-family="sans-serif" font-size="14" lengthAdjust="spacing" textLength="195" x="437" y="129.1826">initProposedCombiantion()</text><rect fill="#F24D5C" height="6" style="stroke:#C82930;stroke-width:1.0;" width="6" x="425" y="139.1328"/><text fill="#000000" font-family="sans-serif" font-size="14" lengthAdjust="spacing" textLength="175" x="437" y="145.4795">initSecretCombination()</text></g><!--class Result--><g id="elem_Result"><rect codeLine="2" fill="#F1F1F1" height="145.7813" id="Result" rx="2.5" ry="2.5" style="stroke:#181818;stroke-width:0.5;" width="212" x="332.5" y="435"/><ellipse cx="411.75" cy="451" fill="#ADD1B2" rx="11" ry="11" style="stroke:#181818;stroke-width:1.0;"/><path d="M414.0938,446.6719 C413.1563,446.2344 412.5625,446.0938 411.6875,446.0938 C409.0625,446.0938 407.0625,448.1719 407.0625,450.8906 L407.0625,452.0156 C407.0625,454.5938 409.1719,456.4844 412.0625,456.4844 C413.2813,456.4844 414.4375,456.1875 415.1875,455.6406 C415.7656,455.2344 416.0938,454.7813 416.0938,454.3906 C416.0938,453.9375 415.7031,453.5469 415.2344,453.5469 C415.0156,453.5469 414.8125,453.625 414.625,453.8125 C414.1719,454.2969 414.1719,454.2969 413.9844,454.3906 C413.5625,454.6563 412.875,454.7813 412.1094,454.7813 C410.0625,454.7813 408.7656,453.6875 408.7656,451.9844 L408.7656,450.8906 C408.7656,449.1094 410.0156,447.7969 411.75,447.7969 C412.3281,447.7969 412.9375,447.9531 413.4063,448.2031 C413.8906,448.4844 414.0625,448.7031 414.1563,449.1094 C414.2188,449.5156 414.25,449.6406 414.3906,449.7656 C414.5313,449.9063 414.7656,450.0156 414.9844,450.0156 C415.25,450.0156 415.5156,449.875 415.6875,449.6563 C415.7969,449.5 415.8281,449.3125 415.8281,448.8906 L415.8281,447.4688 C415.8281,447.0313 415.8125,446.9063 415.7188,446.75 C415.5625,446.4844 415.2813,446.3438 414.9844,446.3438 C414.6875,446.3438 414.4844,446.4375 414.2656,446.75 L414.0938,446.6719 Z " fill="#000000"/><text fill="#000000" font-family="sans-serif" font-size="14" lengthAdjust="spacing" textLength="45" x="432.25" y="455.8467">Result</text><line style="stroke:#181818;stroke-width:0.5;" x1="333.5" x2="543.5" y1="467" y2="467"/><polygon fill="none" points="343.5,475.6484,347.5,479.6484,343.5,483.6484,339.5,479.6484" style="stroke:#B38D22;stroke-width:1.0;"/><text fill="#000000" font-family="sans-serif" font-size="14" lengthAdjust="spacing" textLength="166" x="352.5" y="483.9951">results [Object[] result]</text><polygon fill="none" points="343.5,491.9453,347.5,495.9453,343.5,499.9453,339.5,495.9453" style="stroke:#B38D22;stroke-width:1.0;"/><text fill="#000000" font-family="sans-serif" font-size="14" lengthAdjust="spacing" textLength="161" x="352.5" y="500.292">ProposedCombination</text><ellipse cx="343.5" cy="513.2422" fill="none" rx="3" ry="3" style="stroke:#038048;stroke-width:1.0;"/><text fill="#000000" font-family="sans-serif" font-size="14" lengthAdjust="spacing" textLength="164" x="352.5" y="516.5889">SECRET_COMBINATION</text><line style="stroke:#181818;stroke-width:0.5;" x1="333.5" x2="543.5" y1="523.8906" y2="523.8906"/><rect fill="#F24D5C" height="6" style="stroke:#C82930;stroke-width:1.0;" width="6" x="340.5" y="534.5391"/><text fill="#000000" font-family="sans-serif" font-size="14" lengthAdjust="spacing" textLength="186" x="352.5" y="540.8857">askProposedCombinatio()</text><rect fill="#F24D5C" height="6" style="stroke:#C82930;stroke-width:1.0;" width="6" x="340.5" y="550.8359"/><text fill="#000000" font-family="sans-serif" font-size="14" lengthAdjust="spacing" textLength="80" x="352.5" y="557.1826">getResult()</text><ellipse cx="343.5" cy="570.1328" fill="#84BE84" rx="3" ry="3" style="stroke:#038048;stroke-width:1.0;"/><text fill="#000000" font-family="sans-serif" font-size="14" lengthAdjust="spacing" textLength="81" x="352.5" y="573.4795">addResult()</text></g><!--class SecretCombination--><g id="elem_SecretCombination"><rect codeLine="3" fill="#F1F1F1" height="113.1875" id="SecretCombination" rx="2.5" ry="2.5" style="stroke:#181818;stroke-width:0.5;" width="283" x="9" y="673.5"/><ellipse cx="75.75" cy="689.5" fill="#ADD1B2" rx="11" ry="11" style="stroke:#181818;stroke-width:1.0;"/><path d="M78.0938,685.1719 C77.1563,684.7344 76.5625,684.5938 75.6875,684.5938 C73.0625,684.5938 71.0625,686.6719 71.0625,689.3906 L71.0625,690.5156 C71.0625,693.0938 73.1719,694.9844 76.0625,694.9844 C77.2813,694.9844 78.4375,694.6875 79.1875,694.1406 C79.7656,693.7344 80.0938,693.2813 80.0938,692.8906 C80.0938,692.4375 79.7031,692.0469 79.2344,692.0469 C79.0156,692.0469 78.8125,692.125 78.625,692.3125 C78.1719,692.7969 78.1719,692.7969 77.9844,692.8906 C77.5625,693.1563 76.875,693.2813 76.1094,693.2813 C74.0625,693.2813 72.7656,692.1875 72.7656,690.4844 L72.7656,689.3906 C72.7656,687.6094 74.0156,686.2969 75.75,686.2969 C76.3281,686.2969 76.9375,686.4531 77.4063,686.7031 C77.8906,686.9844 78.0625,687.2031 78.1563,687.6094 C78.2188,688.0156 78.25,688.1406 78.3906,688.2656 C78.5313,688.4063 78.7656,688.5156 78.9844,688.5156 C79.25,688.5156 79.5156,688.375 79.6875,688.1563 C79.7969,688 79.8281,687.8125 79.8281,687.3906 L79.8281,685.9688 C79.8281,685.5313 79.8125,685.4063 79.7188,685.25 C79.5625,684.9844 79.2813,684.8438 78.9844,684.8438 C78.6875,684.8438 78.4844,684.9375 78.2656,685.25 L78.0938,685.1719 Z " fill="#000000"/><text fill="#000000" font-family="sans-serif" font-size="14" lengthAdjust="spacing" textLength="141" x="96.25" y="694.3467">SecretCombination</text><line style="stroke:#181818;stroke-width:0.5;" x1="10" x2="291" y1="705.5" y2="705.5"/><polygon fill="none" points="20,714.1484,24,718.1484,20,722.1484,16,718.1484" style="stroke:#B38D22;stroke-width:1.0;"/><text fill="#000000" font-family="sans-serif" font-size="14" lengthAdjust="spacing" textLength="164" x="29" y="722.4951">SECRET_COMBINATION</text><rect fill="none" height="6" style="stroke:#C82930;stroke-width:1.0;" width="6" x="17" y="732.4453"/><text fill="#000000" font-family="sans-serif" font-size="14" lengthAdjust="spacing" textLength="165" x="29" y="738.792">COMBINATION_LENGTH</text><line style="stroke:#181818;stroke-width:0.5;" x1="10" x2="291" y1="746.0938" y2="746.0938"/><rect fill="#F24D5C" height="6" style="stroke:#C82930;stroke-width:1.0;" width="6" x="17" y="756.7422"/><text fill="#000000" font-family="sans-serif" font-size="14" lengthAdjust="spacing" textLength="257" x="29" y="763.0889">createRandomSecretCombination()</text><rect fill="#F24D5C" height="6" style="stroke:#C82930;stroke-width:1.0;" width="6" x="17" y="773.0391"/><text fill="#000000" font-family="sans-serif" font-size="14" lengthAdjust="spacing" textLength="114" x="29" y="779.3857">getRandomInt()</text></g><!--class ProposedCombination--><g id="elem_ProposedCombination"><rect codeLine="4" fill="#F1F1F1" height="178.375" id="ProposedCombination" rx="2.5" ry="2.5" style="stroke:#181818;stroke-width:0.5;" width="222" x="327.5" y="641"/><ellipse cx="355.55" cy="657" fill="#ADD1B2" rx="11" ry="11" style="stroke:#181818;stroke-width:1.0;"/><path d="M357.8938,652.6719 C356.9563,652.2344 356.3625,652.0938 355.4875,652.0938 C352.8625,652.0938 350.8625,654.1719 350.8625,656.8906 L350.8625,658.0156 C350.8625,660.5938 352.9719,662.4844 355.8625,662.4844 C357.0813,662.4844 358.2375,662.1875 358.9875,661.6406 C359.5656,661.2344 359.8938,660.7813 359.8938,660.3906 C359.8938,659.9375 359.5031,659.5469 359.0344,659.5469 C358.8156,659.5469 358.6125,659.625 358.425,659.8125 C357.9719,660.2969 357.9719,660.2969 357.7844,660.3906 C357.3625,660.6563 356.675,660.7813 355.9094,660.7813 C353.8625,660.7813 352.5656,659.6875 352.5656,657.9844 L352.5656,656.8906 C352.5656,655.1094 353.8156,653.7969 355.55,653.7969 C356.1281,653.7969 356.7375,653.9531 357.2063,654.2031 C357.6906,654.4844 357.8625,654.7031 357.9563,655.1094 C358.0188,655.5156 358.05,655.6406 358.1906,655.7656 C358.3313,655.9063 358.5656,656.0156 358.7844,656.0156 C359.05,656.0156 359.3156,655.875 359.4875,655.6563 C359.5969,655.5 359.6281,655.3125 359.6281,654.8906 L359.6281,653.4688 C359.6281,653.0313 359.6125,652.9063 359.5188,652.75 C359.3625,652.4844 359.0813,652.3438 358.7844,652.3438 C358.4875,652.3438 358.2844,652.4375 358.0656,652.75 L357.8938,652.6719 Z " fill="#000000"/><text fill="#000000" font-family="sans-serif" font-size="14" lengthAdjust="spacing" textLength="161" x="372.45" y="661.8467">ProposedCombination</text><line style="stroke:#181818;stroke-width:0.5;" x1="328.5" x2="548.5" y1="673" y2="673"/><rect fill="none" height="6" style="stroke:#C82930;stroke-width:1.0;" width="6" x="335.5" y="683.6484"/><text fill="#000000" font-family="sans-serif" font-size="14" lengthAdjust="spacing" textLength="165" x="347.5" y="689.9951">COMBINATION_LENGTH</text><polygon fill="none" points="338.5,697.9453,342.5,701.9453,338.5,705.9453,334.5,701.9453" style="stroke:#B38D22;stroke-width:1.0;"/><text fill="#000000" font-family="sans-serif" font-size="14" lengthAdjust="spacing" textLength="177" x="347.5" y="706.292">PROPOSED_COMBIATION</text><line style="stroke:#181818;stroke-width:0.5;" x1="328.5" x2="548.5" y1="713.5938" y2="713.5938"/><rect fill="#F24D5C" height="6" style="stroke:#C82930;stroke-width:1.0;" width="6" x="335.5" y="724.2422"/><text fill="#000000" font-family="sans-serif" font-size="14" lengthAdjust="spacing" textLength="145" x="347.5" y="730.5889">POSSIBLE_COLORS()</text><rect fill="#F24D5C" height="6" style="stroke:#C82930;stroke-width:1.0;" width="6" x="335.5" y="740.5391"/><text fill="#000000" font-family="sans-serif" font-size="14" lengthAdjust="spacing" textLength="111" x="347.5" y="746.8857">isRightLength()</text><rect fill="#F24D5C" height="6" style="stroke:#C82930;stroke-width:1.0;" width="6" x="335.5" y="756.8359"/><text fill="#000000" font-family="sans-serif" font-size="14" lengthAdjust="spacing" textLength="97" x="347.5" y="763.1826">isInColorSet()</text><rect fill="#F24D5C" height="6" style="stroke:#C82930;stroke-width:1.0;" width="6" x="335.5" y="773.1328"/><text fill="#000000" font-family="sans-serif" font-size="14" lengthAdjust="spacing" textLength="157" x="347.5" y="779.4795">containUniqueColors()</text><rect fill="#F24D5C" height="6" style="stroke:#C82930;stroke-width:1.0;" width="6" x="335.5" y="789.4297"/><text fill="#000000" font-family="sans-serif" font-size="14" lengthAdjust="spacing" textLength="71" x="347.5" y="795.7764">anyError()</text><rect fill="#F24D5C" height="6" style="stroke:#C82930;stroke-width:1.0;" width="6" x="335.5" y="805.7266"/><text fill="#000000" font-family="sans-serif" font-size="14" lengthAdjust="spacing" textLength="196" x="347.5" y="812.0732">getProposedCombination()</text></g><!--class Game--><g id="elem_Game"><rect codeLine="5" fill="#F1F1F1" height="162.0781" id="Game" rx="2.5" ry="2.5" style="stroke:#181818;stroke-width:0.5;" width="141" x="368" y="213"/><ellipse cx="413.25" cy="229" fill="#ADD1B2" rx="11" ry="11" style="stroke:#181818;stroke-width:1.0;"/><path d="M415.5938,224.6719 C414.6563,224.2344 414.0625,224.0938 413.1875,224.0938 C410.5625,224.0938 408.5625,226.1719 408.5625,228.8906 L408.5625,230.0156 C408.5625,232.5938 410.6719,234.4844 413.5625,234.4844 C414.7813,234.4844 415.9375,234.1875 416.6875,233.6406 C417.2656,233.2344 417.5938,232.7813 417.5938,232.3906 C417.5938,231.9375 417.2031,231.5469 416.7344,231.5469 C416.5156,231.5469 416.3125,231.625 416.125,231.8125 C415.6719,232.2969 415.6719,232.2969 415.4844,232.3906 C415.0625,232.6563 414.375,232.7813 413.6094,232.7813 C411.5625,232.7813 410.2656,231.6875 410.2656,229.9844 L410.2656,228.8906 C410.2656,227.1094 411.5156,225.7969 413.25,225.7969 C413.8281,225.7969 414.4375,225.9531 414.9063,226.2031 C415.3906,226.4844 415.5625,226.7031 415.6563,227.1094 C415.7188,227.5156 415.75,227.6406 415.8906,227.7656 C416.0313,227.9063 416.2656,228.0156 416.4844,228.0156 C416.75,228.0156 417.0156,227.875 417.1875,227.6563 C417.2969,227.5 417.3281,227.3125 417.3281,226.8906 L417.3281,225.4688 C417.3281,225.0313 417.3125,224.9063 417.2188,224.75 C417.0625,224.4844 416.7813,224.3438 416.4844,224.3438 C416.1875,224.3438 415.9844,224.4375 415.7656,224.75 L415.5938,224.6719 Z " fill="#000000"/><text fill="#000000" font-family="sans-serif" font-size="14" lengthAdjust="spacing" textLength="42" x="433.75" y="233.8467">Game</text><line style="stroke:#181818;stroke-width:0.5;" x1="369" x2="508" y1="245" y2="245"/><rect fill="none" height="6" style="stroke:#C82930;stroke-width:1.0;" width="6" x="376" y="255.6484"/><text fill="#000000" font-family="sans-serif" font-size="14" lengthAdjust="spacing" textLength="115" x="388" y="261.9951">MAX_ATTEMPTS</text><rect fill="none" height="6" style="stroke:#C82930;stroke-width:1.0;" width="6" x="376" y="271.9453"/><text fill="#000000" font-family="sans-serif" font-size="14" lengthAdjust="spacing" textLength="69" x="388" y="278.292">attempts</text><rect fill="none" height="6" style="stroke:#C82930;stroke-width:1.0;" width="6" x="376" y="288.2422"/><text fill="#000000" font-family="sans-serif" font-size="14" lengthAdjust="spacing" textLength="96" x="388" y="294.5889">WINNER_MSG</text><rect fill="none" height="6" style="stroke:#C82930;stroke-width:1.0;" width="6" x="376" y="304.5391"/><text fill="#000000" font-family="sans-serif" font-size="14" lengthAdjust="spacing" textLength="95" x="388" y="310.8857">LOSSER_MSG</text><line style="stroke:#181818;stroke-width:0.5;" x1="369" x2="508" y1="318.1875" y2="318.1875"/><text fill="#000000" font-family="sans-serif" font-size="14" lengthAdjust="spacing" textLength="88" x="374" y="335.1826">printGame()</text><text fill="#000000" font-family="sans-serif" font-size="14" lengthAdjust="spacing" textLength="102" x="374" y="351.4795">incAttempts()</text><text fill="#000000" font-family="sans-serif" font-size="14" lengthAdjust="spacing" textLength="97" x="374" y="367.7764">isGameOver()</text></g><!--class YesNoDialog--><g id="elem_YesNoDialog"><rect codeLine="6" fill="#F1F1F1" height="145.7813" id="YesNoDialog" rx="2.5" ry="2.5" style="stroke:#181818;stroke-width:0.5;" width="147" x="544" y="221"/><ellipse cx="570.7" cy="237" fill="#ADD1B2" rx="11" ry="11" style="stroke:#181818;stroke-width:1.0;"/><path d="M573.0438,232.6719 C572.1063,232.2344 571.5125,232.0938 570.6375,232.0938 C568.0125,232.0938 566.0125,234.1719 566.0125,236.8906 L566.0125,238.0156 C566.0125,240.5938 568.1219,242.4844 571.0125,242.4844 C572.2313,242.4844 573.3875,242.1875 574.1375,241.6406 C574.7156,241.2344 575.0438,240.7813 575.0438,240.3906 C575.0438,239.9375 574.6531,239.5469 574.1844,239.5469 C573.9656,239.5469 573.7625,239.625 573.575,239.8125 C573.1219,240.2969 573.1219,240.2969 572.9344,240.3906 C572.5125,240.6563 571.825,240.7813 571.0594,240.7813 C569.0125,240.7813 567.7156,239.6875 567.7156,237.9844 L567.7156,236.8906 C567.7156,235.1094 568.9656,233.7969 570.7,233.7969 C571.2781,233.7969 571.8875,233.9531 572.3563,234.2031 C572.8406,234.4844 573.0125,234.7031 573.1063,235.1094 C573.1688,235.5156 573.2,235.6406 573.3406,235.7656 C573.4813,235.9063 573.7156,236.0156 573.9344,236.0156 C574.2,236.0156 574.4656,235.875 574.6375,235.6563 C574.7469,235.5 574.7781,235.3125 574.7781,234.8906 L574.7781,233.4688 C574.7781,233.0313 574.7625,232.9063 574.6688,232.75 C574.5125,232.4844 574.2313,232.3438 573.9344,232.3438 C573.6375,232.3438 573.4344,232.4375 573.2156,232.75 L573.0438,232.6719 Z " fill="#000000"/><text fill="#000000" font-family="sans-serif" font-size="14" lengthAdjust="spacing" textLength="89" x="587.3" y="241.8467">YesNoDialog</text><line style="stroke:#181818;stroke-width:0.5;" x1="545" x2="690" y1="253" y2="253"/><rect fill="none" height="6" style="stroke:#C82930;stroke-width:1.0;" width="6" x="552" y="263.6484"/><text fill="#000000" font-family="sans-serif" font-size="14" lengthAdjust="spacing" textLength="62" x="564" y="269.9951">question</text><rect fill="none" height="6" style="stroke:#C82930;stroke-width:1.0;" width="6" x="552" y="279.9453"/><text fill="#000000" font-family="sans-serif" font-size="14" lengthAdjust="spacing" textLength="50" x="564" y="286.292">answer</text><line style="stroke:#181818;stroke-width:0.5;" x1="545" x2="690" y1="293.5938" y2="293.5938"/><rect fill="#F24D5C" height="6" style="stroke:#C82930;stroke-width:1.0;" width="6" x="552" y="304.2422"/><text fill="#000000" font-family="sans-serif" font-size="14" lengthAdjust="spacing" textLength="94" x="564" y="310.5889">saveAnswer()</text><ellipse cx="555" cy="323.5391" fill="#84BE84" rx="3" ry="3" style="stroke:#038048;stroke-width:1.0;"/><text fill="#000000" font-family="sans-serif" font-size="14" lengthAdjust="spacing" textLength="103" x="564" y="326.8857">isAffirmative()</text><ellipse cx="555" cy="339.8359" fill="#84BE84" rx="3" ry="3" style="stroke:#038048;stroke-width:1.0;"/><text fill="#000000" font-family="sans-serif" font-size="14" lengthAdjust="spacing" textLength="85" x="564" y="343.1826">isNegative()</text><ellipse cx="555" cy="356.1328" fill="#84BE84" rx="3" ry="3" style="stroke:#038048;stroke-width:1.0;"/><text fill="#000000" font-family="sans-serif" font-size="14" lengthAdjust="spacing" textLength="121" x="564" y="359.4795">askToPlayAgain()</text></g><!--class Utils--><g id="elem_Utils"><rect codeLine="7" fill="#F1F1F1" height="64.2969" id="Utils" rx="2.5" ry="2.5" style="stroke:#181818;stroke-width:0.5;" width="63" x="489" y="920"/><ellipse cx="504" cy="936" fill="#ADD1B2" rx="11" ry="11" style="stroke:#181818;stroke-width:1.0;"/><path d="M506.3438,931.6719 C505.4063,931.2344 504.8125,931.0938 503.9375,931.0938 C501.3125,931.0938 499.3125,933.1719 499.3125,935.8906 L499.3125,937.0156 C499.3125,939.5938 501.4219,941.4844 504.3125,941.4844 C505.5313,941.4844 506.6875,941.1875 507.4375,940.6406 C508.0156,940.2344 508.3438,939.7813 508.3438,939.3906 C508.3438,938.9375 507.9531,938.5469 507.4844,938.5469 C507.2656,938.5469 507.0625,938.625 506.875,938.8125 C506.4219,939.2969 506.4219,939.2969 506.2344,939.3906 C505.8125,939.6563 505.125,939.7813 504.3594,939.7813 C502.3125,939.7813 501.0156,938.6875 501.0156,936.9844 L501.0156,935.8906 C501.0156,934.1094 502.2656,932.7969 504,932.7969 C504.5781,932.7969 505.1875,932.9531 505.6563,933.2031 C506.1406,933.4844 506.3125,933.7031 506.4063,934.1094 C506.4688,934.5156 506.5,934.6406 506.6406,934.7656 C506.7813,934.9063 507.0156,935.0156 507.2344,935.0156 C507.5,935.0156 507.7656,934.875 507.9375,934.6563 C508.0469,934.5 508.0781,934.3125 508.0781,933.8906 L508.0781,932.4688 C508.0781,932.0313 508.0625,931.9063 507.9688,931.75 C507.8125,931.4844 507.5313,931.3438 507.2344,931.3438 C506.9375,931.3438 506.7344,931.4375 506.5156,931.75 L506.3438,931.6719 Z " fill="#000000"/><text fill="#000000" font-family="sans-serif" font-size="14" lengthAdjust="spacing" textLength="31" x="518" y="940.8467">Utils</text><line style="stroke:#181818;stroke-width:0.5;" x1="490" x2="551" y1="952" y2="952"/><line style="stroke:#181818;stroke-width:0.5;" x1="490" x2="551" y1="960" y2="960"/><ellipse cx="500" cy="973.6484" fill="#84BE84" rx="3" ry="3" style="stroke:#038048;stroke-width:1.0;"/><text fill="#000000" font-family="sans-serif" font-size="14" lengthAdjust="spacing" textLength="34" x="509" y="976.9951">isIn()</text></g><!--class Color--><g id="elem_Color"><rect codeLine="8" fill="#F1F1F1" height="145.7813" id="Color" rx="2.5" ry="2.5" style="stroke:#181818;stroke-width:0.5;" width="70" x="208.5" y="879"/><ellipse cx="223.5" cy="895" fill="#EB937F" rx="11" ry="11" style="stroke:#181818;stroke-width:1.0;"/><path d="M222.2969,895.875 L223.75,895.875 L223.75,895.9844 C223.75,896.3906 223.7813,896.5469 223.8594,896.7031 C224.0156,896.9531 224.2969,897.1094 224.5938,897.1094 C224.8438,897.1094 225.1094,896.9688 225.2656,896.75 C225.3906,896.5938 225.4219,896.4375 225.4219,895.9844 L225.4219,894.0625 C225.4219,893.9063 225.4219,893.8594 225.4063,893.7031 C225.3438,893.2344 225.0313,892.9219 224.5781,892.9219 C224.3281,892.9219 224.0625,893.0625 223.8906,893.2813 C223.7813,893.4531 223.75,893.6094 223.75,894.0625 L223.75,894.1875 L222.2969,894.1875 L222.2969,891.7813 L226.2813,891.7813 L226.2813,892.6406 C226.2813,893.0469 226.3125,893.2188 226.3906,893.375 C226.5625,893.625 226.8438,893.7813 227.125,893.7813 C227.3906,893.7813 227.6563,893.6406 227.8281,893.4219 C227.9375,893.25 227.9688,893.1094 227.9688,892.6406 L227.9688,890.0938 L220.3438,890.0938 C219.9063,890.0938 219.7813,890.1094 219.625,890.2031 C219.375,890.3594 219.2188,890.6563 219.2188,890.9375 C219.2188,891.2188 219.3594,891.4688 219.5781,891.6406 C219.7344,891.75 219.9219,891.7813 220.3438,891.7813 L220.5938,891.7813 L220.5938,898.2969 L220.3438,898.2969 C219.9375,898.2969 219.7813,898.3125 219.625,898.4219 C219.375,898.5938 219.2188,898.8594 219.2188,899.1563 C219.2188,899.4219 219.3594,899.6719 219.5781,899.8281 C219.7188,899.9531 219.9531,900 220.3438,900 L228.3438,900 L228.3438,897.4219 C228.3438,896.9844 228.3125,896.8438 228.2344,896.6875 C228.0625,896.4375 227.7813,896.2813 227.5,896.2813 C227.2344,896.2813 226.9688,896.3906 226.7969,896.6406 C226.6875,896.7969 226.6563,896.9375 226.6563,897.4219 L226.6563,898.2969 L222.2969,898.2969 L222.2969,895.875 Z " fill="#000000"/><text fill="#000000" font-family="sans-serif" font-size="14" lengthAdjust="spacing" textLength="38" x="237.5" y="899.8467">Color</text><line style="stroke:#181818;stroke-width:0.5;" x1="209.5" x2="277.5" y1="911" y2="911"/><text fill="#000000" font-family="sans-serif" font-size="14" lengthAdjust="spacing" textLength="10" x="214.5" y="927.9951">R</text><text fill="#000000" font-family="sans-serif" font-size="14" lengthAdjust="spacing" textLength="11" x="214.5" y="944.292">G</text><text fill="#000000" font-family="sans-serif" font-size="14" lengthAdjust="spacing" textLength="10" x="214.5" y="960.5889">B</text><text fill="#000000" font-family="sans-serif" font-size="14" lengthAdjust="spacing" textLength="9" x="214.5" y="976.8857">Y</text><text fill="#000000" font-family="sans-serif" font-size="14" lengthAdjust="spacing" textLength="10" x="214.5" y="993.1826">C</text><text fill="#000000" font-family="sans-serif" font-size="14" lengthAdjust="spacing" textLength="12" x="214.5" y="1009.4795">M</text><line style="stroke:#181818;stroke-width:0.5;" x1="209.5" x2="277.5" y1="1016.7813" y2="1016.7813"/></g><!--reverse link Mastermind to YesNoDialog--><g id="link_Mastermind_YesNoDialog"><path codeLine="11" d="M562.7844,164.1148 C572.0594,185.9618 577.557,198.913 586.836,220.77 " fill="none" id="Mastermind-backto-YesNoDialog" style="stroke:#181818;stroke-width:1.0;"/><polygon fill="#181818" points="558.095,153.069,556.7578,160.155,562.7844,164.1148,564.1216,157.0288,558.095,153.069" style="stroke:#181818;stroke-width:1.0;"/></g><!--reverse link Mastermind to Game--><g id="link_Mastermind_Game"><path codeLine="12" d="M492.5994,164.1337 C484.5374,183.3397 480.421,193.143 472.187,212.757 " fill="none" id="Mastermind-backto-Game" style="stroke:#181818;stroke-width:1.0;"/><polygon fill="#181818" points="497.244,153.069,491.2335,157.0532,492.5994,164.1337,498.61,160.1495,497.244,153.069" style="stroke:#181818;stroke-width:1.0;"/><text fill="#000000" font-family="sans-serif" font-size="13" lengthAdjust="spacing" textLength="24" x="450.1185" y="201.9227">1..n</text></g><!--link Result to SecretCombination--><g id="link_Result_SecretCombination"><path codeLine="13" d="M344.198,581.036 C304.99,610.987 264.948,641.5748 228.309,669.5628 " fill="none" id="Result-to-SecretCombination" style="stroke:#181818;stroke-width:1.0;"/><polygon fill="#181818" points="223.541,673.205,233.1212,670.9203,227.5144,670.1698,228.2649,664.563,223.541,673.205" style="stroke:#181818;stroke-width:1.0;"/></g><!--link Result to ProposedCombination--><g id="link_Result_ProposedCombination"><path codeLine="14" d="M438.5,581.036 C438.5,600.084 438.5,614.863 438.5,634.666 " fill="none" id="Result-to-ProposedCombination" style="stroke:#181818;stroke-width:1.0;stroke-dasharray:7.0,7.0;"/><polygon fill="#181818" points="438.5,640.666,442.5,631.666,438.5,635.666,434.5,631.666,438.5,640.666" style="stroke:#181818;stroke-width:1.0;"/></g><!--reverse link SecretCombination to Color--><g id="link_SecretCombination_Color"><path codeLine="15" d="M178.6404,797.568 C190.4784,825.572 200.308,848.827 213,878.85 " fill="none" id="SecretCombination-backto-Color" style="stroke:#181818;stroke-width:1.0;"/><polygon fill="#181818" points="173.968,786.515,172.6199,793.599,178.6404,797.568,179.9885,790.484,173.968,786.515" style="stroke:#181818;stroke-width:1.0;"/><text fill="#000000" font-family="sans-serif" font-size="13" lengthAdjust="spacing" textLength="8" x="201.6039" y="867.9952">4</text></g><!--reverse link ProposedCombination to Color--><g id="link_ProposedCombination_Color"><path codeLine="16" d="M352.3503,828.1952 C324.0593,860.1132 301.469,885.6 278.709,911.277 " fill="none" id="ProposedCombination-backto-Color" style="stroke:#181818;stroke-width:1.0;"/><polygon fill="#181818" points="360.31,819.215,353.3368,821.0518,352.3503,828.1952,359.3235,826.3583,360.31,819.215" style="stroke:#181818;stroke-width:1.0;"/><text fill="#000000" font-family="sans-serif" font-size="13" lengthAdjust="spacing" textLength="8" x="286.4283" y="898.8846">4</text></g><!--reverse link Game to Result--><g id="link_Game_Result"><path codeLine="17" d="M438.5,387.148 C438.5,406.73 438.5,415.565 438.5,434.753 " fill="none" id="Game-backto-Result" style="stroke:#181818;stroke-width:1.0;"/><polygon fill="#181818" points="438.5,375.148,434.5,381.148,438.5,387.148,442.5,381.148,438.5,375.148" style="stroke:#181818;stroke-width:1.0;"/></g><!--link Result to Utils--><g id="link_Result_Utils"><path codeLine="18" d="M528.155,581.352 C544.195,599.022 558.612,619.19 567.5,641 C606.735,737.283 563.7081,856.9787 538.0871,914.3367 " fill="none" id="Result-to-Utils" style="stroke:#181818;stroke-width:1.0;stroke-dasharray:7.0,7.0;"/><polygon fill="#181818" points="535.64,919.815,542.9628,913.2289,537.6792,915.2497,535.6584,909.9662,535.64,919.815" style="stroke:#181818;stroke-width:1.0;"/></g><!--link ProposedCombination to Utils--><g id="link_ProposedCombination_Utils"><path codeLine="19" d="M471.38,819.215 C484.658,854.838 497.0233,888.0159 506.7933,914.2259 " fill="none" id="ProposedCombination-to-Utils" style="stroke:#181818;stroke-width:1.0;stroke-dasharray:7.0,7.0;"/><polygon fill="#181818" points="508.889,919.848,509.4935,910.0177,507.1426,915.1629,501.9974,912.812,508.889,919.848" style="stroke:#181818;stroke-width:1.0;"/></g><!--SRC=[VLHDRvmm4BtpAz3cqZPYfKezvH299MYBn9SmKHj5qSe1XxW5Usjxjyg_hp6iONU7SXhUUpFpPh2fMYobcs2fYEWegvtA00MHXrQDBuXKWgY0Tw-KOKKv6_5Sy3sNfBvcjhWZO_X4PCeVA6vvCoAFYhRI8UpGkG5lkN0SP-hlVl6yivmBQlLrlMQheS5WqlMyUy3YIAxNzw3FguIX-hVLw0d8kL3q5WmqxchMS9WGAZ6nyy7kN8yogcPZV_eCy7r7a1XQWrGe11SWSsOFizuUgBlQb5Rfnuol9Od_S-UNPPZa9R8WLefqUoKjy2DAqx3O9MXheJX3w1pQ2yfEGuuGPPK_rfg1iW-o8-a7E-tzphqH9fBkS_RwYrJg-SKTa9UP1ZeBbhr5OL24vIx8aasK-cMKfHFfOVdxEbixc1GDcJx5L1JNjKM1SwTD0MqXdJSJxE8mtPRVOPs6i285PZNleCy79lNcJKR4Z5Fm_C8cOELDNcHvXiA7OR1XheMYMeUYJHngQPmLIFTV459PqEPTnOGrwlr_ieYPQug8MbPLd2bCsIEZVmx4oEMo6BEFqsLQKEWD0epPvUngzqhTJfgZTu5Z9lyISObAV2I-ONIjS-wMIl_jZOfEjpeIY4v9iy3fyrpolCKVVgENqDiqVwOXBJA0sOa62XjjRRInqPED0Xib_m00]--></g></svg>