<?xml version="1.0" encoding="us-ascii" standalone="no"?><svg xmlns="http://www.w3.org/2000/svg" xmlns:xlink="http://www.w3.org/1999/xlink" contentStyleType="text/css" height="933px" preserveAspectRatio="none" style="width:923px;height:933px;background:#FFFFFF;" version="1.1" viewBox="0 0 923 933" width="923px" zoomAndPan="magnify"><defs/><g><!--class Mastermind--><g id="elem_Mastermind"><rect codeLine="1" fill="#F1F1F1" height="64.2969" id="Mastermind" rx="2.5" ry="2.5" style="stroke:#181818;stroke-width:0.5;" width="117" x="557" y="7"/><ellipse cx="572" cy="23" fill="#ADD1B2" rx="11" ry="11" style="stroke:#181818;stroke-width:1.0;"/><path d="M574.3438,18.6719 C573.4063,18.2344 572.8125,18.0938 571.9375,18.0938 C569.3125,18.0938 567.3125,20.1719 567.3125,22.8906 L567.3125,24.0156 C567.3125,26.5938 569.4219,28.4844 572.3125,28.4844 C573.5313,28.4844 574.6875,28.1875 575.4375,27.6406 C576.0156,27.2344 576.3438,26.7813 576.3438,26.3906 C576.3438,25.9375 575.9531,25.5469 575.4844,25.5469 C575.2656,25.5469 575.0625,25.625 574.875,25.8125 C574.4219,26.2969 574.4219,26.2969 574.2344,26.3906 C573.8125,26.6563 573.125,26.7813 572.3594,26.7813 C570.3125,26.7813 569.0156,25.6875 569.0156,23.9844 L569.0156,22.8906 C569.0156,21.1094 570.2656,19.7969 572,19.7969 C572.5781,19.7969 573.1875,19.9531 573.6563,20.2031 C574.1406,20.4844 574.3125,20.7031 574.4063,21.1094 C574.4688,21.5156 574.5,21.6406 574.6406,21.7656 C574.7813,21.9063 575.0156,22.0156 575.2344,22.0156 C575.5,22.0156 575.7656,21.875 575.9375,21.6563 C576.0469,21.5 576.0781,21.3125 576.0781,20.8906 L576.0781,19.4688 C576.0781,19.0313 576.0625,18.9063 575.9688,18.75 C575.8125,18.4844 575.5313,18.3438 575.2344,18.3438 C574.9375,18.3438 574.7344,18.4375 574.5156,18.75 L574.3438,18.6719 Z " fill="#000000"/><text fill="#000000" font-family="sans-serif" font-size="14" lengthAdjust="spacing" textLength="85" x="586" y="27.8467">Mastermind</text><line style="stroke:#181818;stroke-width:0.5;" x1="558" x2="673" y1="39" y2="39"/><line style="stroke:#181818;stroke-width:0.5;" x1="558" x2="673" y1="47" y2="47"/><ellipse cx="568" cy="60.6484" fill="#84BE84" rx="3" ry="3" style="stroke:#038048;stroke-width:1.0;"/><text fill="#000000" font-family="sans-serif" font-size="14" lengthAdjust="spacing" textLength="40" x="577" y="63.9951">play()</text></g><!--class SecretCombination--><g id="elem_SecretCombination"><rect codeLine="2" fill="#F1F1F1" height="145.7813" id="SecretCombination" rx="2.5" ry="2.5" style="stroke:#181818;stroke-width:0.5;" width="283" x="7" y="337"/><ellipse cx="73.75" cy="353" fill="#ADD1B2" rx="11" ry="11" style="stroke:#181818;stroke-width:1.0;"/><path d="M76.0938,348.6719 C75.1563,348.2344 74.5625,348.0938 73.6875,348.0938 C71.0625,348.0938 69.0625,350.1719 69.0625,352.8906 L69.0625,354.0156 C69.0625,356.5938 71.1719,358.4844 74.0625,358.4844 C75.2813,358.4844 76.4375,358.1875 77.1875,357.6406 C77.7656,357.2344 78.0938,356.7813 78.0938,356.3906 C78.0938,355.9375 77.7031,355.5469 77.2344,355.5469 C77.0156,355.5469 76.8125,355.625 76.625,355.8125 C76.1719,356.2969 76.1719,356.2969 75.9844,356.3906 C75.5625,356.6563 74.875,356.7813 74.1094,356.7813 C72.0625,356.7813 70.7656,355.6875 70.7656,353.9844 L70.7656,352.8906 C70.7656,351.1094 72.0156,349.7969 73.75,349.7969 C74.3281,349.7969 74.9375,349.9531 75.4063,350.2031 C75.8906,350.4844 76.0625,350.7031 76.1563,351.1094 C76.2188,351.5156 76.25,351.6406 76.3906,351.7656 C76.5313,351.9063 76.7656,352.0156 76.9844,352.0156 C77.25,352.0156 77.5156,351.875 77.6875,351.6563 C77.7969,351.5 77.8281,351.3125 77.8281,350.8906 L77.8281,349.4688 C77.8281,349.0313 77.8125,348.9063 77.7188,348.75 C77.5625,348.4844 77.2813,348.3438 76.9844,348.3438 C76.6875,348.3438 76.4844,348.4375 76.2656,348.75 L76.0938,348.6719 Z " fill="#000000"/><text fill="#000000" font-family="sans-serif" font-size="14" lengthAdjust="spacing" textLength="141" x="94.25" y="357.8467">SecretCombination</text><line style="stroke:#181818;stroke-width:0.5;" x1="8" x2="289" y1="369" y2="369"/><rect fill="none" height="6" style="stroke:#C82930;stroke-width:1.0;" width="6" x="15" y="379.6484"/><text fill="#000000" font-family="sans-serif" font-size="14" lengthAdjust="spacing" textLength="164" x="27" y="385.9951">SECRET_COMBINATION</text><line style="stroke:#181818;stroke-width:0.5;" x1="8" x2="289" y1="393.2969" y2="393.2969"/><rect fill="#F24D5C" height="6" style="stroke:#C82930;stroke-width:1.0;" width="6" x="15" y="403.9453"/><text fill="#000000" font-family="sans-serif" font-size="14" lengthAdjust="spacing" textLength="257" x="27" y="410.292">createRandomSecretCombination()</text><rect fill="#F24D5C" height="6" style="stroke:#C82930;stroke-width:1.0;" width="6" x="15" y="420.2422"/><text fill="#000000" font-family="sans-serif" font-size="14" lengthAdjust="spacing" textLength="114" x="27" y="426.5889">getRandomInt()</text><rect fill="#F24D5C" height="6" style="stroke:#C82930;stroke-width:1.0;" width="6" x="15" y="436.5391"/><text fill="#000000" font-family="sans-serif" font-size="14" lengthAdjust="spacing" textLength="159" x="27" y="442.8857">assignRandomLetter()</text><ellipse cx="18" cy="455.8359" fill="#84BE84" rx="3" ry="3" style="stroke:#038048;stroke-width:1.0;"/><text fill="#000000" font-family="sans-serif" font-size="14" lengthAdjust="spacing" textLength="57" x="27" y="459.1826">create()</text><ellipse cx="18" cy="472.1328" fill="#84BE84" rx="3" ry="3" style="stroke:#038048;stroke-width:1.0;"/><text fill="#000000" font-family="sans-serif" font-size="14" lengthAdjust="spacing" textLength="35" x="27" y="475.4795">get()</text></g><!--class ProposedCombination--><g id="elem_ProposedCombination"><rect codeLine="3" fill="#F1F1F1" height="145.7813" id="ProposedCombination" rx="2.5" ry="2.5" style="stroke:#181818;stroke-width:0.5;" width="195" x="325" y="337"/><ellipse cx="340.9" cy="353" fill="#ADD1B2" rx="11" ry="11" style="stroke:#181818;stroke-width:1.0;"/><path d="M343.2438,348.6719 C342.3063,348.2344 341.7125,348.0938 340.8375,348.0938 C338.2125,348.0938 336.2125,350.1719 336.2125,352.8906 L336.2125,354.0156 C336.2125,356.5938 338.3219,358.4844 341.2125,358.4844 C342.4313,358.4844 343.5875,358.1875 344.3375,357.6406 C344.9156,357.2344 345.2438,356.7813 345.2438,356.3906 C345.2438,355.9375 344.8531,355.5469 344.3844,355.5469 C344.1656,355.5469 343.9625,355.625 343.775,355.8125 C343.3219,356.2969 343.3219,356.2969 343.1344,356.3906 C342.7125,356.6563 342.025,356.7813 341.2594,356.7813 C339.2125,356.7813 337.9156,355.6875 337.9156,353.9844 L337.9156,352.8906 C337.9156,351.1094 339.1656,349.7969 340.9,349.7969 C341.4781,349.7969 342.0875,349.9531 342.5563,350.2031 C343.0406,350.4844 343.2125,350.7031 343.3063,351.1094 C343.3688,351.5156 343.4,351.6406 343.5406,351.7656 C343.6813,351.9063 343.9156,352.0156 344.1344,352.0156 C344.4,352.0156 344.6656,351.875 344.8375,351.6563 C344.9469,351.5 344.9781,351.3125 344.9781,350.8906 L344.9781,349.4688 C344.9781,349.0313 344.9625,348.9063 344.8688,348.75 C344.7125,348.4844 344.4313,348.3438 344.1344,348.3438 C343.8375,348.3438 343.6344,348.4375 343.4156,348.75 L343.2438,348.6719 Z " fill="#000000"/><text fill="#000000" font-family="sans-serif" font-size="14" lengthAdjust="spacing" textLength="161" x="355.1" y="357.8467">ProposedCombination</text><line style="stroke:#181818;stroke-width:0.5;" x1="326" x2="519" y1="369" y2="369"/><rect fill="none" height="6" style="stroke:#C82930;stroke-width:1.0;" width="6" x="333" y="379.6484"/><text fill="#000000" font-family="sans-serif" font-size="14" lengthAdjust="spacing" textLength="169" x="345" y="385.9951">proposedCombinations</text><line style="stroke:#181818;stroke-width:0.5;" x1="326" x2="519" y1="393.2969" y2="393.2969"/><ellipse cx="336" cy="406.9453" fill="#84BE84" rx="3" ry="3" style="stroke:#038048;stroke-width:1.0;"/><text fill="#000000" font-family="sans-serif" font-size="14" lengthAdjust="spacing" textLength="65" x="345" y="410.292">request()</text><ellipse cx="336" cy="423.2422" fill="#84BE84" rx="3" ry="3" style="stroke:#038048;stroke-width:1.0;"/><text fill="#000000" font-family="sans-serif" font-size="14" lengthAdjust="spacing" textLength="36" x="345" y="426.5889">add()</text><ellipse cx="336" cy="439.5391" fill="#84BE84" rx="3" ry="3" style="stroke:#038048;stroke-width:1.0;"/><text fill="#000000" font-family="sans-serif" font-size="14" lengthAdjust="spacing" textLength="65" x="345" y="442.8857">getLast()</text><ellipse cx="336" cy="455.8359" fill="#84BE84" rx="3" ry="3" style="stroke:#038048;stroke-width:1.0;"/><text fill="#000000" font-family="sans-serif" font-size="14" lengthAdjust="spacing" textLength="53" x="345" y="459.1826">getAll()</text><ellipse cx="336" cy="472.1328" fill="#84BE84" rx="3" ry="3" style="stroke:#038048;stroke-width:1.0;"/><text fill="#000000" font-family="sans-serif" font-size="14" lengthAdjust="spacing" textLength="51" x="345" y="475.4795">count()</text></g><!--class Game--><g id="elem_Game"><rect codeLine="4" fill="#F1F1F1" height="96.8906" id="Game" rx="2.5" ry="2.5" style="stroke:#181818;stroke-width:0.5;" width="141" x="456" y="155.5"/><ellipse cx="501.25" cy="171.5" fill="#ADD1B2" rx="11" ry="11" style="stroke:#181818;stroke-width:1.0;"/><path d="M503.5938,167.1719 C502.6563,166.7344 502.0625,166.5938 501.1875,166.5938 C498.5625,166.5938 496.5625,168.6719 496.5625,171.3906 L496.5625,172.5156 C496.5625,175.0938 498.6719,176.9844 501.5625,176.9844 C502.7813,176.9844 503.9375,176.6875 504.6875,176.1406 C505.2656,175.7344 505.5938,175.2813 505.5938,174.8906 C505.5938,174.4375 505.2031,174.0469 504.7344,174.0469 C504.5156,174.0469 504.3125,174.125 504.125,174.3125 C503.6719,174.7969 503.6719,174.7969 503.4844,174.8906 C503.0625,175.1563 502.375,175.2813 501.6094,175.2813 C499.5625,175.2813 498.2656,174.1875 498.2656,172.4844 L498.2656,171.3906 C498.2656,169.6094 499.5156,168.2969 501.25,168.2969 C501.8281,168.2969 502.4375,168.4531 502.9063,168.7031 C503.3906,168.9844 503.5625,169.2031 503.6563,169.6094 C503.7188,170.0156 503.75,170.1406 503.8906,170.2656 C504.0313,170.4063 504.2656,170.5156 504.4844,170.5156 C504.75,170.5156 505.0156,170.375 505.1875,170.1563 C505.2969,170 505.3281,169.8125 505.3281,169.3906 L505.3281,167.9688 C505.3281,167.5313 505.3125,167.4063 505.2188,167.25 C505.0625,166.9844 504.7813,166.8438 504.4844,166.8438 C504.1875,166.8438 503.9844,166.9375 503.7656,167.25 L503.5938,167.1719 Z " fill="#000000"/><text fill="#000000" font-family="sans-serif" font-size="14" lengthAdjust="spacing" textLength="42" x="521.75" y="176.3467">Game</text><line style="stroke:#181818;stroke-width:0.5;" x1="457" x2="596" y1="187.5" y2="187.5"/><rect fill="none" height="6" style="stroke:#C82930;stroke-width:1.0;" width="6" x="464" y="198.1484"/><text fill="#000000" font-family="sans-serif" font-size="14" lengthAdjust="spacing" textLength="115" x="476" y="204.4951">MAX_ATTEMPTS</text><line style="stroke:#181818;stroke-width:0.5;" x1="457" x2="596" y1="211.7969" y2="211.7969"/><rect fill="#F24D5C" height="6" style="stroke:#C82930;stroke-width:1.0;" width="6" x="464" y="222.4453"/><text fill="#000000" font-family="sans-serif" font-size="14" lengthAdjust="spacing" textLength="63" x="476" y="228.792">resume()</text><ellipse cx="467" cy="241.7422" fill="#84BE84" rx="3" ry="3" style="stroke:#038048;stroke-width:1.0;"/><text fill="#000000" font-family="sans-serif" font-size="14" lengthAdjust="spacing" textLength="40" x="476" y="245.0889">play()</text></g><!--class YesNoDialog--><g id="elem_YesNoDialog"><rect codeLine="5" fill="#F1F1F1" height="145.7813" id="YesNoDialog" rx="2.5" ry="2.5" style="stroke:#181818;stroke-width:0.5;" width="147" x="632" y="131"/><ellipse cx="658.7" cy="147" fill="#ADD1B2" rx="11" ry="11" style="stroke:#181818;stroke-width:1.0;"/><path d="M661.0438,142.6719 C660.1063,142.2344 659.5125,142.0938 658.6375,142.0938 C656.0125,142.0938 654.0125,144.1719 654.0125,146.8906 L654.0125,148.0156 C654.0125,150.5938 656.1219,152.4844 659.0125,152.4844 C660.2313,152.4844 661.3875,152.1875 662.1375,151.6406 C662.7156,151.2344 663.0438,150.7813 663.0438,150.3906 C663.0438,149.9375 662.6531,149.5469 662.1844,149.5469 C661.9656,149.5469 661.7625,149.625 661.575,149.8125 C661.1219,150.2969 661.1219,150.2969 660.9344,150.3906 C660.5125,150.6563 659.825,150.7813 659.0594,150.7813 C657.0125,150.7813 655.7156,149.6875 655.7156,147.9844 L655.7156,146.8906 C655.7156,145.1094 656.9656,143.7969 658.7,143.7969 C659.2781,143.7969 659.8875,143.9531 660.3563,144.2031 C660.8406,144.4844 661.0125,144.7031 661.1063,145.1094 C661.1688,145.5156 661.2,145.6406 661.3406,145.7656 C661.4813,145.9063 661.7156,146.0156 661.9344,146.0156 C662.2,146.0156 662.4656,145.875 662.6375,145.6563 C662.7469,145.5 662.7781,145.3125 662.7781,144.8906 L662.7781,143.4688 C662.7781,143.0313 662.7625,142.9063 662.6688,142.75 C662.5125,142.4844 662.2313,142.3438 661.9344,142.3438 C661.6375,142.3438 661.4344,142.4375 661.2156,142.75 L661.0438,142.6719 Z " fill="#000000"/><text fill="#000000" font-family="sans-serif" font-size="14" lengthAdjust="spacing" textLength="89" x="675.3" y="151.8467">YesNoDialog</text><line style="stroke:#181818;stroke-width:0.5;" x1="633" x2="778" y1="163" y2="163"/><rect fill="none" height="6" style="stroke:#C82930;stroke-width:1.0;" width="6" x="640" y="173.6484"/><text fill="#000000" font-family="sans-serif" font-size="14" lengthAdjust="spacing" textLength="62" x="652" y="179.9951">question</text><rect fill="none" height="6" style="stroke:#C82930;stroke-width:1.0;" width="6" x="640" y="189.9453"/><text fill="#000000" font-family="sans-serif" font-size="14" lengthAdjust="spacing" textLength="50" x="652" y="196.292">answer</text><line style="stroke:#181818;stroke-width:0.5;" x1="633" x2="778" y1="203.5938" y2="203.5938"/><rect fill="#F24D5C" height="6" style="stroke:#C82930;stroke-width:1.0;" width="6" x="640" y="214.2422"/><text fill="#000000" font-family="sans-serif" font-size="14" lengthAdjust="spacing" textLength="94" x="652" y="220.5889">saveAnswer()</text><ellipse cx="643" cy="233.5391" fill="#84BE84" rx="3" ry="3" style="stroke:#038048;stroke-width:1.0;"/><text fill="#000000" font-family="sans-serif" font-size="14" lengthAdjust="spacing" textLength="103" x="652" y="236.8857">isAffirmative()</text><ellipse cx="643" cy="249.8359" fill="#84BE84" rx="3" ry="3" style="stroke:#038048;stroke-width:1.0;"/><text fill="#000000" font-family="sans-serif" font-size="14" lengthAdjust="spacing" textLength="85" x="652" y="253.1826">isNegative()</text><ellipse cx="643" cy="266.1328" fill="#84BE84" rx="3" ry="3" style="stroke:#038048;stroke-width:1.0;"/><text fill="#000000" font-family="sans-serif" font-size="14" lengthAdjust="spacing" textLength="121" x="652" y="269.4795">askToPlayAgain()</text></g><!--class Color--><g id="elem_Color"><rect codeLine="6" fill="#F1F1F1" height="145.7813" id="Color" rx="2.5" ry="2.5" style="stroke:#181818;stroke-width:0.5;" width="70" x="40.5" y="781"/><ellipse cx="55.5" cy="797" fill="#EB937F" rx="11" ry="11" style="stroke:#181818;stroke-width:1.0;"/><path d="M54.2969,797.875 L55.75,797.875 L55.75,797.9844 C55.75,798.3906 55.7813,798.5469 55.8594,798.7031 C56.0156,798.9531 56.2969,799.1094 56.5938,799.1094 C56.8438,799.1094 57.1094,798.9688 57.2656,798.75 C57.3906,798.5938 57.4219,798.4375 57.4219,797.9844 L57.4219,796.0625 C57.4219,795.9063 57.4219,795.8594 57.4063,795.7031 C57.3438,795.2344 57.0313,794.9219 56.5781,794.9219 C56.3281,794.9219 56.0625,795.0625 55.8906,795.2813 C55.7813,795.4531 55.75,795.6094 55.75,796.0625 L55.75,796.1875 L54.2969,796.1875 L54.2969,793.7813 L58.2813,793.7813 L58.2813,794.6406 C58.2813,795.0469 58.3125,795.2188 58.3906,795.375 C58.5625,795.625 58.8438,795.7813 59.125,795.7813 C59.3906,795.7813 59.6563,795.6406 59.8281,795.4219 C59.9375,795.25 59.9688,795.1094 59.9688,794.6406 L59.9688,792.0938 L52.3438,792.0938 C51.9063,792.0938 51.7813,792.1094 51.625,792.2031 C51.375,792.3594 51.2188,792.6563 51.2188,792.9375 C51.2188,793.2188 51.3594,793.4688 51.5781,793.6406 C51.7344,793.75 51.9219,793.7813 52.3438,793.7813 L52.5938,793.7813 L52.5938,800.2969 L52.3438,800.2969 C51.9375,800.2969 51.7813,800.3125 51.625,800.4219 C51.375,800.5938 51.2188,800.8594 51.2188,801.1563 C51.2188,801.4219 51.3594,801.6719 51.5781,801.8281 C51.7188,801.9531 51.9531,802 52.3438,802 L60.3438,802 L60.3438,799.4219 C60.3438,798.9844 60.3125,798.8438 60.2344,798.6875 C60.0625,798.4375 59.7813,798.2813 59.5,798.2813 C59.2344,798.2813 58.9688,798.3906 58.7969,798.6406 C58.6875,798.7969 58.6563,798.9375 58.6563,799.4219 L58.6563,800.2969 L54.2969,800.2969 L54.2969,797.875 Z " fill="#000000"/><text fill="#000000" font-family="sans-serif" font-size="14" lengthAdjust="spacing" textLength="38" x="69.5" y="801.8467">Color</text><line style="stroke:#181818;stroke-width:0.5;" x1="41.5" x2="109.5" y1="813" y2="813"/><text fill="#000000" font-family="sans-serif" font-size="14" lengthAdjust="spacing" textLength="10" x="46.5" y="829.9951">R</text><text fill="#000000" font-family="sans-serif" font-size="14" lengthAdjust="spacing" textLength="11" x="46.5" y="846.292">G</text><text fill="#000000" font-family="sans-serif" font-size="14" lengthAdjust="spacing" textLength="10" x="46.5" y="862.5889">B</text><text fill="#000000" font-family="sans-serif" font-size="14" lengthAdjust="spacing" textLength="9" x="46.5" y="878.8857">Y</text><text fill="#000000" font-family="sans-serif" font-size="14" lengthAdjust="spacing" textLength="10" x="46.5" y="895.1826">C</text><text fill="#000000" font-family="sans-serif" font-size="14" lengthAdjust="spacing" textLength="12" x="46.5" y="911.4795">M</text><line style="stroke:#181818;stroke-width:0.5;" x1="41.5" x2="109.5" y1="918.7813" y2="918.7813"/></g><!--class CombinationError--><g id="elem_CombinationError"><rect codeLine="7" fill="#F1F1F1" height="178.375" id="CombinationError" rx="2.5" ry="2.5" style="stroke:#181818;stroke-width:0.5;" width="205" x="57" y="543"/><ellipse cx="91.8" cy="559" fill="#ADD1B2" rx="11" ry="11" style="stroke:#181818;stroke-width:1.0;"/><path d="M94.1438,554.6719 C93.2063,554.2344 92.6125,554.0938 91.7375,554.0938 C89.1125,554.0938 87.1125,556.1719 87.1125,558.8906 L87.1125,560.0156 C87.1125,562.5938 89.2219,564.4844 92.1125,564.4844 C93.3313,564.4844 94.4875,564.1875 95.2375,563.6406 C95.8156,563.2344 96.1438,562.7813 96.1438,562.3906 C96.1438,561.9375 95.7531,561.5469 95.2844,561.5469 C95.0656,561.5469 94.8625,561.625 94.675,561.8125 C94.2219,562.2969 94.2219,562.2969 94.0344,562.3906 C93.6125,562.6563 92.925,562.7813 92.1594,562.7813 C90.1125,562.7813 88.8156,561.6875 88.8156,559.9844 L88.8156,558.8906 C88.8156,557.1094 90.0656,555.7969 91.8,555.7969 C92.3781,555.7969 92.9875,555.9531 93.4563,556.2031 C93.9406,556.4844 94.1125,556.7031 94.2063,557.1094 C94.2688,557.5156 94.3,557.6406 94.4406,557.7656 C94.5813,557.9063 94.8156,558.0156 95.0344,558.0156 C95.3,558.0156 95.5656,557.875 95.7375,557.6563 C95.8469,557.5 95.8781,557.3125 95.8781,556.8906 L95.8781,555.4688 C95.8781,555.0313 95.8625,554.9063 95.7688,554.75 C95.6125,554.4844 95.3313,554.3438 95.0344,554.3438 C94.7375,554.3438 94.5344,554.4375 94.3156,554.75 L94.1438,554.6719 Z " fill="#000000"/><text fill="#000000" font-family="sans-serif" font-size="14" lengthAdjust="spacing" textLength="129" x="110.2" y="563.8467">CombinationError</text><line style="stroke:#181818;stroke-width:0.5;" x1="58" x2="261" y1="575" y2="575"/><rect fill="none" height="6" style="stroke:#C82930;stroke-width:1.0;" width="6" x="65" y="585.6484"/><text fill="#000000" font-family="sans-serif" font-size="14" lengthAdjust="spacing" textLength="165" x="77" y="591.9951">COMBINATION_LENGTH</text><line style="stroke:#181818;stroke-width:0.5;" x1="58" x2="261" y1="599.2969" y2="599.2969"/><rect fill="#F24D5C" height="6" style="stroke:#C82930;stroke-width:1.0;" width="6" x="65" y="609.9453"/><text fill="#000000" font-family="sans-serif" font-size="14" lengthAdjust="spacing" textLength="139" x="77" y="616.292">getPossibleColors()</text><rect fill="#F24D5C" height="6" style="stroke:#C82930;stroke-width:1.0;" width="6" x="65" y="626.2422"/><text fill="#000000" font-family="sans-serif" font-size="14" lengthAdjust="spacing" textLength="111" x="77" y="632.5889">isRightLength()</text><rect fill="#F24D5C" height="6" style="stroke:#C82930;stroke-width:1.0;" width="6" x="65" y="642.5391"/><text fill="#000000" font-family="sans-serif" font-size="14" lengthAdjust="spacing" textLength="97" x="77" y="648.8857">isInColorSet()</text><rect fill="#F24D5C" height="6" style="stroke:#C82930;stroke-width:1.0;" width="6" x="65" y="658.8359"/><text fill="#000000" font-family="sans-serif" font-size="14" lengthAdjust="spacing" textLength="157" x="77" y="665.1826">containUniqueColors()</text><rect fill="#F24D5C" height="6" style="stroke:#C82930;stroke-width:1.0;" width="6" x="65" y="675.1328"/><text fill="#000000" font-family="sans-serif" font-size="14" lengthAdjust="spacing" textLength="34" x="77" y="681.4795">isIn()</text><ellipse cx="68" cy="694.4297" fill="#84BE84" rx="3" ry="3" style="stroke:#038048;stroke-width:1.0;"/><text fill="#000000" font-family="sans-serif" font-size="14" lengthAdjust="spacing" textLength="71" x="77" y="697.7764">anyError()</text><ellipse cx="68" cy="710.7266" fill="#84BE84" rx="3" ry="3" style="stroke:#038048;stroke-width:1.0;"/><text fill="#000000" font-family="sans-serif" font-size="14" lengthAdjust="spacing" textLength="179" x="77" y="714.0732">getCombinationLength()</text></g><!--class CombinationErrorView--><g id="elem_CombinationErrorView"><rect codeLine="8" fill="#F1F1F1" height="64.2969" id="CombinationErrorView" rx="2.5" ry="2.5" style="stroke:#181818;stroke-width:0.5;" width="195" x="146" y="822"/><ellipse cx="161" cy="838" fill="#ADD1B2" rx="11" ry="11" style="stroke:#181818;stroke-width:1.0;"/><path d="M163.3438,833.6719 C162.4063,833.2344 161.8125,833.0938 160.9375,833.0938 C158.3125,833.0938 156.3125,835.1719 156.3125,837.8906 L156.3125,839.0156 C156.3125,841.5938 158.4219,843.4844 161.3125,843.4844 C162.5313,843.4844 163.6875,843.1875 164.4375,842.6406 C165.0156,842.2344 165.3438,841.7813 165.3438,841.3906 C165.3438,840.9375 164.9531,840.5469 164.4844,840.5469 C164.2656,840.5469 164.0625,840.625 163.875,840.8125 C163.4219,841.2969 163.4219,841.2969 163.2344,841.3906 C162.8125,841.6563 162.125,841.7813 161.3594,841.7813 C159.3125,841.7813 158.0156,840.6875 158.0156,838.9844 L158.0156,837.8906 C158.0156,836.1094 159.2656,834.7969 161,834.7969 C161.5781,834.7969 162.1875,834.9531 162.6563,835.2031 C163.1406,835.4844 163.3125,835.7031 163.4063,836.1094 C163.4688,836.5156 163.5,836.6406 163.6406,836.7656 C163.7813,836.9063 164.0156,837.0156 164.2344,837.0156 C164.5,837.0156 164.7656,836.875 164.9375,836.6563 C165.0469,836.5 165.0781,836.3125 165.0781,835.8906 L165.0781,834.4688 C165.0781,834.0313 165.0625,833.9063 164.9688,833.75 C164.8125,833.4844 164.5313,833.3438 164.2344,833.3438 C163.9375,833.3438 163.7344,833.4375 163.5156,833.75 L163.3438,833.6719 Z " fill="#000000"/><text fill="#000000" font-family="sans-serif" font-size="14" lengthAdjust="spacing" textLength="163" x="175" y="842.8467">CombinationErrorView</text><line style="stroke:#181818;stroke-width:0.5;" x1="147" x2="340" y1="854" y2="854"/><line style="stroke:#181818;stroke-width:0.5;" x1="147" x2="340" y1="862" y2="862"/><ellipse cx="157" cy="875.6484" fill="#84BE84" rx="3" ry="3" style="stroke:#038048;stroke-width:1.0;"/><text fill="#000000" font-family="sans-serif" font-size="14" lengthAdjust="spacing" textLength="89" x="166" y="878.9951">printErrors()</text></g><!--class GameView--><g id="elem_GameView"><rect codeLine="9" fill="#F1F1F1" height="145.7813" id="GameView" rx="2.5" ry="2.5" style="stroke:#181818;stroke-width:0.5;" width="150" x="555.5" y="337"/><ellipse cx="589.4" cy="353" fill="#ADD1B2" rx="11" ry="11" style="stroke:#181818;stroke-width:1.0;"/><path d="M591.7438,348.6719 C590.8063,348.2344 590.2125,348.0938 589.3375,348.0938 C586.7125,348.0938 584.7125,350.1719 584.7125,352.8906 L584.7125,354.0156 C584.7125,356.5938 586.8219,358.4844 589.7125,358.4844 C590.9313,358.4844 592.0875,358.1875 592.8375,357.6406 C593.4156,357.2344 593.7438,356.7813 593.7438,356.3906 C593.7438,355.9375 593.3531,355.5469 592.8844,355.5469 C592.6656,355.5469 592.4625,355.625 592.275,355.8125 C591.8219,356.2969 591.8219,356.2969 591.6344,356.3906 C591.2125,356.6563 590.525,356.7813 589.7594,356.7813 C587.7125,356.7813 586.4156,355.6875 586.4156,353.9844 L586.4156,352.8906 C586.4156,351.1094 587.6656,349.7969 589.4,349.7969 C589.9781,349.7969 590.5875,349.9531 591.0563,350.2031 C591.5406,350.4844 591.7125,350.7031 591.8063,351.1094 C591.8688,351.5156 591.9,351.6406 592.0406,351.7656 C592.1813,351.9063 592.4156,352.0156 592.6344,352.0156 C592.9,352.0156 593.1656,351.875 593.3375,351.6563 C593.4469,351.5 593.4781,351.3125 593.4781,350.8906 L593.4781,349.4688 C593.4781,349.0313 593.4625,348.9063 593.3688,348.75 C593.2125,348.4844 592.9313,348.3438 592.6344,348.3438 C592.3375,348.3438 592.1344,348.4375 591.9156,348.75 L591.7438,348.6719 Z " fill="#000000"/><text fill="#000000" font-family="sans-serif" font-size="14" lengthAdjust="spacing" textLength="76" x="607.6" y="357.8467">GameView</text><line style="stroke:#181818;stroke-width:0.5;" x1="556.5" x2="704.5" y1="369" y2="369"/><line style="stroke:#181818;stroke-width:0.5;" x1="556.5" x2="704.5" y1="377" y2="377"/><ellipse cx="566.5" cy="390.6484" fill="#84BE84" rx="3" ry="3" style="stroke:#038048;stroke-width:1.0;"/><text fill="#000000" font-family="sans-serif" font-size="14" lengthAdjust="spacing" textLength="97" x="575.5" y="393.9951">printWinner()</text><ellipse cx="566.5" cy="406.9453" fill="#84BE84" rx="3" ry="3" style="stroke:#038048;stroke-width:1.0;"/><text fill="#000000" font-family="sans-serif" font-size="14" lengthAdjust="spacing" textLength="92" x="575.5" y="410.292">printLosser()</text><ellipse cx="566.5" cy="423.2422" fill="#84BE84" rx="3" ry="3" style="stroke:#038048;stroke-width:1.0;"/><text fill="#000000" font-family="sans-serif" font-size="14" lengthAdjust="spacing" textLength="97" x="575.5" y="426.5889">printHeader()</text><ellipse cx="566.5" cy="439.5391" fill="#84BE84" rx="3" ry="3" style="stroke:#038048;stroke-width:1.0;"/><text fill="#000000" font-family="sans-serif" font-size="14" lengthAdjust="spacing" textLength="124" x="575.5" y="442.8857">printFinalResult()</text><ellipse cx="566.5" cy="455.8359" fill="#84BE84" rx="3" ry="3" style="stroke:#038048;stroke-width:1.0;"/><text fill="#000000" font-family="sans-serif" font-size="14" lengthAdjust="spacing" textLength="88" x="575.5" y="459.1826">printBoard()</text><ellipse cx="566.5" cy="472.1328" fill="#84BE84" rx="3" ry="3" style="stroke:#038048;stroke-width:1.0;"/><text fill="#000000" font-family="sans-serif" font-size="14" lengthAdjust="spacing" textLength="79" x="575.5" y="475.4795">printTitle()</text></g><!--class Result--><g id="elem_Result"><rect codeLine="10" fill="#F1F1F1" height="113.1875" id="Result" rx="2.5" ry="2.5" style="stroke:#181818;stroke-width:0.5;" width="175" x="741" y="353.5"/><ellipse cx="801.75" cy="369.5" fill="#ADD1B2" rx="11" ry="11" style="stroke:#181818;stroke-width:1.0;"/><path d="M804.0938,365.1719 C803.1563,364.7344 802.5625,364.5938 801.6875,364.5938 C799.0625,364.5938 797.0625,366.6719 797.0625,369.3906 L797.0625,370.5156 C797.0625,373.0938 799.1719,374.9844 802.0625,374.9844 C803.2813,374.9844 804.4375,374.6875 805.1875,374.1406 C805.7656,373.7344 806.0938,373.2813 806.0938,372.8906 C806.0938,372.4375 805.7031,372.0469 805.2344,372.0469 C805.0156,372.0469 804.8125,372.125 804.625,372.3125 C804.1719,372.7969 804.1719,372.7969 803.9844,372.8906 C803.5625,373.1563 802.875,373.2813 802.1094,373.2813 C800.0625,373.2813 798.7656,372.1875 798.7656,370.4844 L798.7656,369.3906 C798.7656,367.6094 800.0156,366.2969 801.75,366.2969 C802.3281,366.2969 802.9375,366.4531 803.4063,366.7031 C803.8906,366.9844 804.0625,367.2031 804.1563,367.6094 C804.2188,368.0156 804.25,368.1406 804.3906,368.2656 C804.5313,368.4063 804.7656,368.5156 804.9844,368.5156 C805.25,368.5156 805.5156,368.375 805.6875,368.1563 C805.7969,368 805.8281,367.8125 805.8281,367.3906 L805.8281,365.9688 C805.8281,365.5313 805.8125,365.4063 805.7188,365.25 C805.5625,364.9844 805.2813,364.8438 804.9844,364.8438 C804.6875,364.8438 804.4844,364.9375 804.2656,365.25 L804.0938,365.1719 Z " fill="#000000"/><text fill="#000000" font-family="sans-serif" font-size="14" lengthAdjust="spacing" textLength="45" x="822.25" y="374.3467">Result</text><line style="stroke:#181818;stroke-width:0.5;" x1="742" x2="915" y1="385.5" y2="385.5"/><line style="stroke:#181818;stroke-width:0.5;" x1="742" x2="915" y1="393.5" y2="393.5"/><rect fill="#F24D5C" height="6" style="stroke:#C82930;stroke-width:1.0;" width="6" x="749" y="404.1484"/><text fill="#000000" font-family="sans-serif" font-size="14" lengthAdjust="spacing" textLength="149" x="761" y="410.4951">createResultHolder()</text><rect fill="#F24D5C" height="6" style="stroke:#C82930;stroke-width:1.0;" width="6" x="749" y="420.4453"/><text fill="#000000" font-family="sans-serif" font-size="14" lengthAdjust="spacing" textLength="97" x="761" y="426.792">countBlacks()</text><rect fill="#F24D5C" height="6" style="stroke:#C82930;stroke-width:1.0;" width="6" x="749" y="436.7422"/><text fill="#000000" font-family="sans-serif" font-size="14" lengthAdjust="spacing" textLength="101" x="761" y="443.0889">countWhites()</text><ellipse cx="752" cy="456.0391" fill="#84BE84" rx="3" ry="3" style="stroke:#038048;stroke-width:1.0;"/><text fill="#000000" font-family="sans-serif" font-size="14" lengthAdjust="spacing" textLength="119" x="761" y="459.3857">calculateResult()</text></g><!--class ProposedCombinationView--><g id="elem_ProposedCombinationView"><rect codeLine="11" fill="#F1F1F1" height="64.2969" id="ProposedCombinationView" rx="2.5" ry="2.5" style="stroke:#181818;stroke-width:0.5;" width="227" x="309" y="600"/><ellipse cx="324" cy="616" fill="#ADD1B2" rx="11" ry="11" style="stroke:#181818;stroke-width:1.0;"/><path d="M326.3438,611.6719 C325.4063,611.2344 324.8125,611.0938 323.9375,611.0938 C321.3125,611.0938 319.3125,613.1719 319.3125,615.8906 L319.3125,617.0156 C319.3125,619.5938 321.4219,621.4844 324.3125,621.4844 C325.5313,621.4844 326.6875,621.1875 327.4375,620.6406 C328.0156,620.2344 328.3438,619.7813 328.3438,619.3906 C328.3438,618.9375 327.9531,618.5469 327.4844,618.5469 C327.2656,618.5469 327.0625,618.625 326.875,618.8125 C326.4219,619.2969 326.4219,619.2969 326.2344,619.3906 C325.8125,619.6563 325.125,619.7813 324.3594,619.7813 C322.3125,619.7813 321.0156,618.6875 321.0156,616.9844 L321.0156,615.8906 C321.0156,614.1094 322.2656,612.7969 324,612.7969 C324.5781,612.7969 325.1875,612.9531 325.6563,613.2031 C326.1406,613.4844 326.3125,613.7031 326.4063,614.1094 C326.4688,614.5156 326.5,614.6406 326.6406,614.7656 C326.7813,614.9063 327.0156,615.0156 327.2344,615.0156 C327.5,615.0156 327.7656,614.875 327.9375,614.6563 C328.0469,614.5 328.0781,614.3125 328.0781,613.8906 L328.0781,612.4688 C328.0781,612.0313 328.0625,611.9063 327.9688,611.75 C327.8125,611.4844 327.5313,611.3438 327.2344,611.3438 C326.9375,611.3438 326.7344,611.4375 326.5156,611.75 L326.3438,611.6719 Z " fill="#000000"/><text fill="#000000" font-family="sans-serif" font-size="14" lengthAdjust="spacing" textLength="195" x="338" y="620.8467">ProposedCombinationView</text><line style="stroke:#181818;stroke-width:0.5;" x1="310" x2="535" y1="632" y2="632"/><line style="stroke:#181818;stroke-width:0.5;" x1="310" x2="535" y1="640" y2="640"/><ellipse cx="320" cy="653.6484" fill="#84BE84" rx="3" ry="3" style="stroke:#038048;stroke-width:1.0;"/><text fill="#000000" font-family="sans-serif" font-size="14" lengthAdjust="spacing" textLength="42" x="329" y="656.9951">read()</text></g><!--reverse link Mastermind to YesNoDialog--><g id="link_Mastermind_YesNoDialog"><path codeLine="13" d="M638.4402,81.5481 C647.8242,98.5441 654.074,109.861 665.66,130.846 " fill="none" id="Mastermind-backto-YesNoDialog" style="stroke:#181818;stroke-width:1.0;"/><polygon fill="#181818" points="632.64,71.043,632.0384,78.229,638.4402,81.5481,639.0418,74.3622,632.64,71.043" style="stroke:#181818;stroke-width:1.0;"/></g><!--reverse link Mastermind to Game--><g id="link_Mastermind_Game"><path codeLine="14" d="M592.7993,81.5753 C579.7873,105.4063 567.345,128.195 552.496,155.39 " fill="none" id="Mastermind-backto-Game" style="stroke:#181818;stroke-width:1.0;"/><polygon fill="#181818" points="598.55,71.043,592.1639,74.3922,592.7993,81.5753,599.1854,78.2261,598.55,71.043" style="stroke:#181818;stroke-width:1.0;"/><text fill="#000000" font-family="sans-serif" font-size="13" lengthAdjust="spacing" textLength="24" x="530.4642" y="144.5835">1..n</text></g><!--reverse link CombinationError to Color--><g id="link_CombinationError_Color"><path codeLine="15" d="M121.5375,732.4256 C113.9605,752.2696 110.288,761.888 102.9993,780.978 " fill="none" id="CombinationError-backto-Color" style="stroke:#181818;stroke-width:1.0;"/><polygon fill="#181818" points="125.818,721.215,119.9409,725.3935,121.5375,732.4256,127.4146,728.2471,125.818,721.215" style="stroke:#181818;stroke-width:1.0;"/><text fill="#000000" font-family="sans-serif" font-size="13" lengthAdjust="spacing" textLength="8" x="97.4227" y="769.7592">4</text></g><!--link SecretCombination to CombinationError--><g id="link_SecretCombination_CombinationError"><path codeLine="16" d="M152.102,483.036 C153.054,502.084 153.7934,516.8705 154.7834,536.6735 " fill="none" id="SecretCombination-to-CombinationError" style="stroke:#181818;stroke-width:1.0;stroke-dasharray:7.0,7.0;"/><polygon fill="#181818" points="155.083,542.666,158.6286,533.4775,154.8333,537.6722,150.6386,533.8769,155.083,542.666" style="stroke:#181818;stroke-width:1.0;"/></g><!--reverse link Game to SecretCombination--><g id="link_Game_SecretCombination"><path codeLine="17" d="M445.2847,248.8311 C396.4567,275.1821 340.557,305.35 281.928,336.991 " fill="none" id="Game-backto-SecretCombination" style="stroke:#181818;stroke-width:1.0;"/><polygon fill="#181818" points="455.845,243.132,448.6651,242.4614,445.2847,248.8311,452.4645,249.5017,455.845,243.132" style="stroke:#181818;stroke-width:1.0;"/></g><!--reverse link Game to ProposedCombination--><g id="link_Game_ProposedCombination"><path codeLine="18" d="M496.7977,263.2619 C484.0127,288.3399 473.514,308.934 459.246,336.922 " fill="none" id="Game-backto-ProposedCombination" style="stroke:#181818;stroke-width:1.0;"/><polygon fill="none" points="502.248,252.571,495.9592,256.0997,496.7977,263.2619,503.0865,259.7332,502.248,252.571" style="stroke:#181818;stroke-width:1.0;"/></g><!--reverse link Game to GameView--><g id="link_Game_GameView"><path codeLine="19" d="M553.4771,257.9164 C566.2621,282.9944 579.486,308.934 593.754,336.922 " fill="none" id="Game-backto-GameView" style="stroke:#181818;stroke-width:1.0;stroke-dasharray:7.0,7.0;"/><polygon fill="#181818" points="550.752,252.571,551.2761,262.4059,553.023,257.0255,558.4033,258.7724,550.752,252.571" style="stroke:#181818;stroke-width:1.0;"/></g><!--link Game to Result--><g id="link_Game_Result"><path codeLine="20" d="M581.656,252.674 C592.294,261.131 603.543,269.593 614.5,277 C660.312,307.971 676.418,307.995 723.5,337 C731.874,342.159 735.4994,344.3994 744.0524,350.0334 " fill="none" id="Game-to-Result" style="stroke:#181818;stroke-width:1.0;stroke-dasharray:7.0,7.0;"/><polygon fill="#181818" points="749.063,353.334,743.7475,345.0427,744.8875,350.5835,739.3467,351.7236,749.063,353.334" style="stroke:#181818;stroke-width:1.0;"/></g><!--link ProposedCombination to CombinationError--><g id="link_ProposedCombination_CombinationError"><path codeLine="21" d="M336.384,483.036 C312.714,502.836 291.4101,520.6562 266.9031,541.1572 " fill="none" id="ProposedCombination-to-CombinationError" style="stroke:#181818;stroke-width:1.0;stroke-dasharray:7.0,7.0;"/><polygon fill="#181818" points="262.301,545.007,271.7706,542.3003,266.1361,541.7988,266.6376,536.1643,262.301,545.007" style="stroke:#181818;stroke-width:1.0;"/></g><!--reverse link ProposedCombination to ProposedCombinationView--><g id="link_ProposedCombination_ProposedCombinationView"><path codeLine="22" d="M422.5,489.036 C422.5,528.636 422.5,569.717 422.5,599.961 " fill="none" id="ProposedCombination-backto-ProposedCombinationView" style="stroke:#181818;stroke-width:1.0;stroke-dasharray:7.0,7.0;"/><polygon fill="#181818" points="422.5,483.036,418.5,492.036,422.5,488.036,426.5,492.036,422.5,483.036" style="stroke:#181818;stroke-width:1.0;"/></g><!--reverse link CombinationError to CombinationErrorView--><g id="link_CombinationError_CombinationErrorView"><path codeLine="23" d="M195.3223,726.8203 C208.9243,762.4433 221.598,795.638 231.606,821.848 " fill="none" id="CombinationError-backto-CombinationErrorView" style="stroke:#181818;stroke-width:1.0;stroke-dasharray:7.0,7.0;"/><polygon fill="#181818" points="193.182,721.215,192.6556,731.0498,194.9656,725.8861,200.1293,728.1961,193.182,721.215" style="stroke:#181818;stroke-width:1.0;"/></g><!--SRC=[XLHHRzem47xFhuXusXOHQTAUgcbIO0oGW298j_K9kSarM7LiPfjM_VSxEwaRiBszNUxxxkxxpeuhHfHArqHfa2tbTLBPn1ug2NegsWVAYQQ2z_cj52UXeFQHEMcX3-z1RSHtIfXe4k3dDfqA9cGF3YfdKaRJFocy33eFFdUWpap7zLXgykue_JGUNqYwWaQVyvoFEltNAZh2br7lmDjAckVVV4UcbQtqjsWXWL1eaHRyckVlZct6pEXD1wh24a94qpcsBy-u8GVFPBY-cpGxCVBwuMFIARr9n-lYzw4eozbwM-vTKgBw5f3M9rnLPyjGS554G_Uz4Am6YVW05cUk9unKJyhF_pfI3HVvh2AiEZFNyKsXSM3dIufbb7CxnaDMGgamiW1IXv4Vk2dcfddmH11PXu2IQcPM4xXSw6y_c-vcvM5wkvuiDqMvlDs4UVtw2Az5wn6mUx2e0TrLBBcESV0demtlQ2lGsfeFCRDEGWp5MSPaw5xYb9EVLX5k9k7F6PJf5Y6Gkew3g6D5_bMDX8AnE6vlNCJAsy7Y9em4_wz2guEZFAncctcv2D9GnXPl8NrWODyUSxr3FAfsj3dg5V167wES9RTDzlOGGfHAS4qel-CKb_kVWKiUXZB2NsqSWPkBI-4K9w5dnlqUDcEq98CdtEYmby2ycbTvmjKBoEki8izGM0HRNM8PLSNZ8vKjAdY64Bo19e8HzLIABJvcHOFRwymmwtRdehcB9YwwTz7KHUk_]--></g></svg>