<?xml version="1.0" encoding="us-ascii" standalone="no"?><svg xmlns="http://www.w3.org/2000/svg" xmlns:xlink="http://www.w3.org/1999/xlink" contentStyleType="text/css" height="949px" preserveAspectRatio="none" style="width:712px;height:949px;background:#FFFFFF;" version="1.1" viewBox="0 0 712 949" width="712px" zoomAndPan="magnify"><defs/><g><!--class Mastermind--><g id="elem_Mastermind"><rect codeLine="1" fill="#F1F1F1" height="64.2969" id="Mastermind" rx="2.5" ry="2.5" style="stroke:#181818;stroke-width:0.5;" width="117" x="462" y="7"/><ellipse cx="477" cy="23" fill="#ADD1B2" rx="11" ry="11" style="stroke:#181818;stroke-width:1.0;"/><path d="M479.3438,18.6719 C478.4063,18.2344 477.8125,18.0938 476.9375,18.0938 C474.3125,18.0938 472.3125,20.1719 472.3125,22.8906 L472.3125,24.0156 C472.3125,26.5938 474.4219,28.4844 477.3125,28.4844 C478.5313,28.4844 479.6875,28.1875 480.4375,27.6406 C481.0156,27.2344 481.3438,26.7813 481.3438,26.3906 C481.3438,25.9375 480.9531,25.5469 480.4844,25.5469 C480.2656,25.5469 480.0625,25.625 479.875,25.8125 C479.4219,26.2969 479.4219,26.2969 479.2344,26.3906 C478.8125,26.6563 478.125,26.7813 477.3594,26.7813 C475.3125,26.7813 474.0156,25.6875 474.0156,23.9844 L474.0156,22.8906 C474.0156,21.1094 475.2656,19.7969 477,19.7969 C477.5781,19.7969 478.1875,19.9531 478.6563,20.2031 C479.1406,20.4844 479.3125,20.7031 479.4063,21.1094 C479.4688,21.5156 479.5,21.6406 479.6406,21.7656 C479.7813,21.9063 480.0156,22.0156 480.2344,22.0156 C480.5,22.0156 480.7656,21.875 480.9375,21.6563 C481.0469,21.5 481.0781,21.3125 481.0781,20.8906 L481.0781,19.4688 C481.0781,19.0313 481.0625,18.9063 480.9688,18.75 C480.8125,18.4844 480.5313,18.3438 480.2344,18.3438 C479.9375,18.3438 479.7344,18.4375 479.5156,18.75 L479.3438,18.6719 Z " fill="#000000"/><text fill="#000000" font-family="sans-serif" font-size="14" lengthAdjust="spacing" textLength="85" x="491" y="27.8467">Mastermind</text><line style="stroke:#181818;stroke-width:0.5;" x1="463" x2="578" y1="39" y2="39"/><line style="stroke:#181818;stroke-width:0.5;" x1="463" x2="578" y1="47" y2="47"/><ellipse cx="473" cy="60.6484" fill="#84BE84" rx="3" ry="3" style="stroke:#038048;stroke-width:1.0;"/><text fill="#000000" font-family="sans-serif" font-size="14" lengthAdjust="spacing" textLength="40" x="482" y="63.9951">play()</text></g><!--class SecretCombination--><g id="elem_SecretCombination"><rect codeLine="2" fill="#F1F1F1" height="145.7813" id="SecretCombination" rx="2.5" ry="2.5" style="stroke:#181818;stroke-width:0.5;" width="283" x="7" y="353"/><ellipse cx="73.75" cy="369" fill="#ADD1B2" rx="11" ry="11" style="stroke:#181818;stroke-width:1.0;"/><path d="M76.0938,364.6719 C75.1563,364.2344 74.5625,364.0938 73.6875,364.0938 C71.0625,364.0938 69.0625,366.1719 69.0625,368.8906 L69.0625,370.0156 C69.0625,372.5938 71.1719,374.4844 74.0625,374.4844 C75.2813,374.4844 76.4375,374.1875 77.1875,373.6406 C77.7656,373.2344 78.0938,372.7813 78.0938,372.3906 C78.0938,371.9375 77.7031,371.5469 77.2344,371.5469 C77.0156,371.5469 76.8125,371.625 76.625,371.8125 C76.1719,372.2969 76.1719,372.2969 75.9844,372.3906 C75.5625,372.6563 74.875,372.7813 74.1094,372.7813 C72.0625,372.7813 70.7656,371.6875 70.7656,369.9844 L70.7656,368.8906 C70.7656,367.1094 72.0156,365.7969 73.75,365.7969 C74.3281,365.7969 74.9375,365.9531 75.4063,366.2031 C75.8906,366.4844 76.0625,366.7031 76.1563,367.1094 C76.2188,367.5156 76.25,367.6406 76.3906,367.7656 C76.5313,367.9063 76.7656,368.0156 76.9844,368.0156 C77.25,368.0156 77.5156,367.875 77.6875,367.6563 C77.7969,367.5 77.8281,367.3125 77.8281,366.8906 L77.8281,365.4688 C77.8281,365.0313 77.8125,364.9063 77.7188,364.75 C77.5625,364.4844 77.2813,364.3438 76.9844,364.3438 C76.6875,364.3438 76.4844,364.4375 76.2656,364.75 L76.0938,364.6719 Z " fill="#000000"/><text fill="#000000" font-family="sans-serif" font-size="14" lengthAdjust="spacing" textLength="141" x="94.25" y="373.8467">SecretCombination</text><line style="stroke:#181818;stroke-width:0.5;" x1="8" x2="289" y1="385" y2="385"/><rect fill="none" height="6" style="stroke:#C82930;stroke-width:1.0;" width="6" x="15" y="395.6484"/><text fill="#000000" font-family="sans-serif" font-size="14" lengthAdjust="spacing" textLength="164" x="27" y="401.9951">SECRET_COMBINATION</text><line style="stroke:#181818;stroke-width:0.5;" x1="8" x2="289" y1="409.2969" y2="409.2969"/><rect fill="#F24D5C" height="6" style="stroke:#C82930;stroke-width:1.0;" width="6" x="15" y="419.9453"/><text fill="#000000" font-family="sans-serif" font-size="14" lengthAdjust="spacing" textLength="257" x="27" y="426.292">createRandomSecretCombination()</text><rect fill="#F24D5C" height="6" style="stroke:#C82930;stroke-width:1.0;" width="6" x="15" y="436.2422"/><text fill="#000000" font-family="sans-serif" font-size="14" lengthAdjust="spacing" textLength="114" x="27" y="442.5889">getRandomInt()</text><rect fill="#F24D5C" height="6" style="stroke:#C82930;stroke-width:1.0;" width="6" x="15" y="452.5391"/><text fill="#000000" font-family="sans-serif" font-size="14" lengthAdjust="spacing" textLength="159" x="27" y="458.8857">assignRandomLetter()</text><ellipse cx="18" cy="471.8359" fill="#84BE84" rx="3" ry="3" style="stroke:#038048;stroke-width:1.0;"/><text fill="#000000" font-family="sans-serif" font-size="14" lengthAdjust="spacing" textLength="57" x="27" y="475.1826">create()</text><ellipse cx="18" cy="488.1328" fill="#84BE84" rx="3" ry="3" style="stroke:#038048;stroke-width:1.0;"/><text fill="#000000" font-family="sans-serif" font-size="14" lengthAdjust="spacing" textLength="35" x="27" y="491.4795">get()</text></g><!--class ProposedCombination--><g id="elem_ProposedCombination"><rect codeLine="3" fill="#F1F1F1" height="145.7813" id="ProposedCombination" rx="2.5" ry="2.5" style="stroke:#181818;stroke-width:0.5;" width="195" x="325" y="353"/><ellipse cx="340.9" cy="369" fill="#ADD1B2" rx="11" ry="11" style="stroke:#181818;stroke-width:1.0;"/><path d="M343.2438,364.6719 C342.3063,364.2344 341.7125,364.0938 340.8375,364.0938 C338.2125,364.0938 336.2125,366.1719 336.2125,368.8906 L336.2125,370.0156 C336.2125,372.5938 338.3219,374.4844 341.2125,374.4844 C342.4313,374.4844 343.5875,374.1875 344.3375,373.6406 C344.9156,373.2344 345.2438,372.7813 345.2438,372.3906 C345.2438,371.9375 344.8531,371.5469 344.3844,371.5469 C344.1656,371.5469 343.9625,371.625 343.775,371.8125 C343.3219,372.2969 343.3219,372.2969 343.1344,372.3906 C342.7125,372.6563 342.025,372.7813 341.2594,372.7813 C339.2125,372.7813 337.9156,371.6875 337.9156,369.9844 L337.9156,368.8906 C337.9156,367.1094 339.1656,365.7969 340.9,365.7969 C341.4781,365.7969 342.0875,365.9531 342.5563,366.2031 C343.0406,366.4844 343.2125,366.7031 343.3063,367.1094 C343.3688,367.5156 343.4,367.6406 343.5406,367.7656 C343.6813,367.9063 343.9156,368.0156 344.1344,368.0156 C344.4,368.0156 344.6656,367.875 344.8375,367.6563 C344.9469,367.5 344.9781,367.3125 344.9781,366.8906 L344.9781,365.4688 C344.9781,365.0313 344.9625,364.9063 344.8688,364.75 C344.7125,364.4844 344.4313,364.3438 344.1344,364.3438 C343.8375,364.3438 343.6344,364.4375 343.4156,364.75 L343.2438,364.6719 Z " fill="#000000"/><text fill="#000000" font-family="sans-serif" font-size="14" lengthAdjust="spacing" textLength="161" x="355.1" y="373.8467">ProposedCombination</text><line style="stroke:#181818;stroke-width:0.5;" x1="326" x2="519" y1="385" y2="385"/><rect fill="none" height="6" style="stroke:#C82930;stroke-width:1.0;" width="6" x="333" y="395.6484"/><text fill="#000000" font-family="sans-serif" font-size="14" lengthAdjust="spacing" textLength="169" x="345" y="401.9951">proposedCombinations</text><line style="stroke:#181818;stroke-width:0.5;" x1="326" x2="519" y1="409.2969" y2="409.2969"/><ellipse cx="336" cy="422.9453" fill="#84BE84" rx="3" ry="3" style="stroke:#038048;stroke-width:1.0;"/><text fill="#000000" font-family="sans-serif" font-size="14" lengthAdjust="spacing" textLength="65" x="345" y="426.292">request()</text><ellipse cx="336" cy="439.2422" fill="#84BE84" rx="3" ry="3" style="stroke:#038048;stroke-width:1.0;"/><text fill="#000000" font-family="sans-serif" font-size="14" lengthAdjust="spacing" textLength="36" x="345" y="442.5889">add()</text><ellipse cx="336" cy="455.5391" fill="#84BE84" rx="3" ry="3" style="stroke:#038048;stroke-width:1.0;"/><text fill="#000000" font-family="sans-serif" font-size="14" lengthAdjust="spacing" textLength="65" x="345" y="458.8857">getLast()</text><ellipse cx="336" cy="471.8359" fill="#84BE84" rx="3" ry="3" style="stroke:#038048;stroke-width:1.0;"/><text fill="#000000" font-family="sans-serif" font-size="14" lengthAdjust="spacing" textLength="53" x="345" y="475.1826">getAll()</text><ellipse cx="336" cy="488.1328" fill="#84BE84" rx="3" ry="3" style="stroke:#038048;stroke-width:1.0;"/><text fill="#000000" font-family="sans-serif" font-size="14" lengthAdjust="spacing" textLength="51" x="345" y="491.4795">count()</text></g><!--class Game--><g id="elem_Game"><rect codeLine="4" fill="#F1F1F1" height="162.0781" id="Game" rx="2.5" ry="2.5" style="stroke:#181818;stroke-width:0.5;" width="175" x="335" y="131"/><ellipse cx="397.25" cy="147" fill="#ADD1B2" rx="11" ry="11" style="stroke:#181818;stroke-width:1.0;"/><path d="M399.5938,142.6719 C398.6563,142.2344 398.0625,142.0938 397.1875,142.0938 C394.5625,142.0938 392.5625,144.1719 392.5625,146.8906 L392.5625,148.0156 C392.5625,150.5938 394.6719,152.4844 397.5625,152.4844 C398.7813,152.4844 399.9375,152.1875 400.6875,151.6406 C401.2656,151.2344 401.5938,150.7813 401.5938,150.3906 C401.5938,149.9375 401.2031,149.5469 400.7344,149.5469 C400.5156,149.5469 400.3125,149.625 400.125,149.8125 C399.6719,150.2969 399.6719,150.2969 399.4844,150.3906 C399.0625,150.6563 398.375,150.7813 397.6094,150.7813 C395.5625,150.7813 394.2656,149.6875 394.2656,147.9844 L394.2656,146.8906 C394.2656,145.1094 395.5156,143.7969 397.25,143.7969 C397.8281,143.7969 398.4375,143.9531 398.9063,144.2031 C399.3906,144.4844 399.5625,144.7031 399.6563,145.1094 C399.7188,145.5156 399.75,145.6406 399.8906,145.7656 C400.0313,145.9063 400.2656,146.0156 400.4844,146.0156 C400.75,146.0156 401.0156,145.875 401.1875,145.6563 C401.2969,145.5 401.3281,145.3125 401.3281,144.8906 L401.3281,143.4688 C401.3281,143.0313 401.3125,142.9063 401.2188,142.75 C401.0625,142.4844 400.7813,142.3438 400.4844,142.3438 C400.1875,142.3438 399.9844,142.4375 399.7656,142.75 L399.5938,142.6719 Z " fill="#000000"/><text fill="#000000" font-family="sans-serif" font-size="14" lengthAdjust="spacing" textLength="42" x="417.75" y="151.8467">Game</text><line style="stroke:#181818;stroke-width:0.5;" x1="336" x2="509" y1="163" y2="163"/><rect fill="none" height="6" style="stroke:#C82930;stroke-width:1.0;" width="6" x="343" y="173.6484"/><text fill="#000000" font-family="sans-serif" font-size="14" lengthAdjust="spacing" textLength="115" x="355" y="179.9951">MAX_ATTEMPTS</text><line style="stroke:#181818;stroke-width:0.5;" x1="336" x2="509" y1="187.2969" y2="187.2969"/><rect fill="#F24D5C" height="6" style="stroke:#C82930;stroke-width:1.0;" width="6" x="343" y="197.9453"/><text fill="#000000" font-family="sans-serif" font-size="14" lengthAdjust="spacing" textLength="119" x="355" y="204.292">calculateResult()</text><rect fill="#F24D5C" height="6" style="stroke:#C82930;stroke-width:1.0;" width="6" x="343" y="214.2422"/><text fill="#000000" font-family="sans-serif" font-size="14" lengthAdjust="spacing" textLength="149" x="355" y="220.5889">createResultHolder()</text><rect fill="#F24D5C" height="6" style="stroke:#C82930;stroke-width:1.0;" width="6" x="343" y="230.5391"/><text fill="#000000" font-family="sans-serif" font-size="14" lengthAdjust="spacing" textLength="97" x="355" y="236.8857">countBlacks()</text><rect fill="#F24D5C" height="6" style="stroke:#C82930;stroke-width:1.0;" width="6" x="343" y="246.8359"/><text fill="#000000" font-family="sans-serif" font-size="14" lengthAdjust="spacing" textLength="101" x="355" y="253.1826">countWhites()</text><rect fill="#F24D5C" height="6" style="stroke:#C82930;stroke-width:1.0;" width="6" x="343" y="263.1328"/><text fill="#000000" font-family="sans-serif" font-size="14" lengthAdjust="spacing" textLength="63" x="355" y="269.4795">resume()</text><ellipse cx="346" cy="282.4297" fill="#84BE84" rx="3" ry="3" style="stroke:#038048;stroke-width:1.0;"/><text fill="#000000" font-family="sans-serif" font-size="14" lengthAdjust="spacing" textLength="40" x="355" y="285.7764">play()</text></g><!--class YesNoDialog--><g id="elem_YesNoDialog"><rect codeLine="5" fill="#F1F1F1" height="145.7813" id="YesNoDialog" rx="2.5" ry="2.5" style="stroke:#181818;stroke-width:0.5;" width="147" x="545" y="139"/><ellipse cx="571.7" cy="155" fill="#ADD1B2" rx="11" ry="11" style="stroke:#181818;stroke-width:1.0;"/><path d="M574.0438,150.6719 C573.1063,150.2344 572.5125,150.0938 571.6375,150.0938 C569.0125,150.0938 567.0125,152.1719 567.0125,154.8906 L567.0125,156.0156 C567.0125,158.5938 569.1219,160.4844 572.0125,160.4844 C573.2313,160.4844 574.3875,160.1875 575.1375,159.6406 C575.7156,159.2344 576.0438,158.7813 576.0438,158.3906 C576.0438,157.9375 575.6531,157.5469 575.1844,157.5469 C574.9656,157.5469 574.7625,157.625 574.575,157.8125 C574.1219,158.2969 574.1219,158.2969 573.9344,158.3906 C573.5125,158.6563 572.825,158.7813 572.0594,158.7813 C570.0125,158.7813 568.7156,157.6875 568.7156,155.9844 L568.7156,154.8906 C568.7156,153.1094 569.9656,151.7969 571.7,151.7969 C572.2781,151.7969 572.8875,151.9531 573.3563,152.2031 C573.8406,152.4844 574.0125,152.7031 574.1063,153.1094 C574.1688,153.5156 574.2,153.6406 574.3406,153.7656 C574.4813,153.9063 574.7156,154.0156 574.9344,154.0156 C575.2,154.0156 575.4656,153.875 575.6375,153.6563 C575.7469,153.5 575.7781,153.3125 575.7781,152.8906 L575.7781,151.4688 C575.7781,151.0313 575.7625,150.9063 575.6688,150.75 C575.5125,150.4844 575.2313,150.3438 574.9344,150.3438 C574.6375,150.3438 574.4344,150.4375 574.2156,150.75 L574.0438,150.6719 Z " fill="#000000"/><text fill="#000000" font-family="sans-serif" font-size="14" lengthAdjust="spacing" textLength="89" x="588.3" y="159.8467">YesNoDialog</text><line style="stroke:#181818;stroke-width:0.5;" x1="546" x2="691" y1="171" y2="171"/><rect fill="none" height="6" style="stroke:#C82930;stroke-width:1.0;" width="6" x="553" y="181.6484"/><text fill="#000000" font-family="sans-serif" font-size="14" lengthAdjust="spacing" textLength="62" x="565" y="187.9951">question</text><rect fill="none" height="6" style="stroke:#C82930;stroke-width:1.0;" width="6" x="553" y="197.9453"/><text fill="#000000" font-family="sans-serif" font-size="14" lengthAdjust="spacing" textLength="50" x="565" y="204.292">answer</text><line style="stroke:#181818;stroke-width:0.5;" x1="546" x2="691" y1="211.5938" y2="211.5938"/><rect fill="#F24D5C" height="6" style="stroke:#C82930;stroke-width:1.0;" width="6" x="553" y="222.2422"/><text fill="#000000" font-family="sans-serif" font-size="14" lengthAdjust="spacing" textLength="94" x="565" y="228.5889">saveAnswer()</text><ellipse cx="556" cy="241.5391" fill="#84BE84" rx="3" ry="3" style="stroke:#038048;stroke-width:1.0;"/><text fill="#000000" font-family="sans-serif" font-size="14" lengthAdjust="spacing" textLength="103" x="565" y="244.8857">isAffirmative()</text><ellipse cx="556" cy="257.8359" fill="#84BE84" rx="3" ry="3" style="stroke:#038048;stroke-width:1.0;"/><text fill="#000000" font-family="sans-serif" font-size="14" lengthAdjust="spacing" textLength="85" x="565" y="261.1826">isNegative()</text><ellipse cx="556" cy="274.1328" fill="#84BE84" rx="3" ry="3" style="stroke:#038048;stroke-width:1.0;"/><text fill="#000000" font-family="sans-serif" font-size="14" lengthAdjust="spacing" textLength="121" x="565" y="277.4795">askToPlayAgain()</text></g><!--class Color--><g id="elem_Color"><rect codeLine="6" fill="#F1F1F1" height="145.7813" id="Color" rx="2.5" ry="2.5" style="stroke:#181818;stroke-width:0.5;" width="70" x="250.5" y="797"/><ellipse cx="265.5" cy="813" fill="#EB937F" rx="11" ry="11" style="stroke:#181818;stroke-width:1.0;"/><path d="M264.2969,813.875 L265.75,813.875 L265.75,813.9844 C265.75,814.3906 265.7813,814.5469 265.8594,814.7031 C266.0156,814.9531 266.2969,815.1094 266.5938,815.1094 C266.8438,815.1094 267.1094,814.9688 267.2656,814.75 C267.3906,814.5938 267.4219,814.4375 267.4219,813.9844 L267.4219,812.0625 C267.4219,811.9063 267.4219,811.8594 267.4063,811.7031 C267.3438,811.2344 267.0313,810.9219 266.5781,810.9219 C266.3281,810.9219 266.0625,811.0625 265.8906,811.2813 C265.7813,811.4531 265.75,811.6094 265.75,812.0625 L265.75,812.1875 L264.2969,812.1875 L264.2969,809.7813 L268.2813,809.7813 L268.2813,810.6406 C268.2813,811.0469 268.3125,811.2188 268.3906,811.375 C268.5625,811.625 268.8438,811.7813 269.125,811.7813 C269.3906,811.7813 269.6563,811.6406 269.8281,811.4219 C269.9375,811.25 269.9688,811.1094 269.9688,810.6406 L269.9688,808.0938 L262.3438,808.0938 C261.9063,808.0938 261.7813,808.1094 261.625,808.2031 C261.375,808.3594 261.2188,808.6563 261.2188,808.9375 C261.2188,809.2188 261.3594,809.4688 261.5781,809.6406 C261.7344,809.75 261.9219,809.7813 262.3438,809.7813 L262.5938,809.7813 L262.5938,816.2969 L262.3438,816.2969 C261.9375,816.2969 261.7813,816.3125 261.625,816.4219 C261.375,816.5938 261.2188,816.8594 261.2188,817.1563 C261.2188,817.4219 261.3594,817.6719 261.5781,817.8281 C261.7188,817.9531 261.9531,818 262.3438,818 L270.3438,818 L270.3438,815.4219 C270.3438,814.9844 270.3125,814.8438 270.2344,814.6875 C270.0625,814.4375 269.7813,814.2813 269.5,814.2813 C269.2344,814.2813 268.9688,814.3906 268.7969,814.6406 C268.6875,814.7969 268.6563,814.9375 268.6563,815.4219 L268.6563,816.2969 L264.2969,816.2969 L264.2969,813.875 Z " fill="#000000"/><text fill="#000000" font-family="sans-serif" font-size="14" lengthAdjust="spacing" textLength="38" x="279.5" y="817.8467">Color</text><line style="stroke:#181818;stroke-width:0.5;" x1="251.5" x2="319.5" y1="829" y2="829"/><text fill="#000000" font-family="sans-serif" font-size="14" lengthAdjust="spacing" textLength="10" x="256.5" y="845.9951">R</text><text fill="#000000" font-family="sans-serif" font-size="14" lengthAdjust="spacing" textLength="11" x="256.5" y="862.292">G</text><text fill="#000000" font-family="sans-serif" font-size="14" lengthAdjust="spacing" textLength="10" x="256.5" y="878.5889">B</text><text fill="#000000" font-family="sans-serif" font-size="14" lengthAdjust="spacing" textLength="9" x="256.5" y="894.8857">Y</text><text fill="#000000" font-family="sans-serif" font-size="14" lengthAdjust="spacing" textLength="10" x="256.5" y="911.1826">C</text><text fill="#000000" font-family="sans-serif" font-size="14" lengthAdjust="spacing" textLength="12" x="256.5" y="927.4795">M</text><line style="stroke:#181818;stroke-width:0.5;" x1="251.5" x2="319.5" y1="934.7813" y2="934.7813"/></g><!--class CombinationError--><g id="elem_CombinationError"><rect codeLine="7" fill="#F1F1F1" height="178.375" id="CombinationError" rx="2.5" ry="2.5" style="stroke:#181818;stroke-width:0.5;" width="205" x="183" y="559"/><ellipse cx="217.8" cy="575" fill="#ADD1B2" rx="11" ry="11" style="stroke:#181818;stroke-width:1.0;"/><path d="M220.1438,570.6719 C219.2063,570.2344 218.6125,570.0938 217.7375,570.0938 C215.1125,570.0938 213.1125,572.1719 213.1125,574.8906 L213.1125,576.0156 C213.1125,578.5938 215.2219,580.4844 218.1125,580.4844 C219.3313,580.4844 220.4875,580.1875 221.2375,579.6406 C221.8156,579.2344 222.1438,578.7813 222.1438,578.3906 C222.1438,577.9375 221.7531,577.5469 221.2844,577.5469 C221.0656,577.5469 220.8625,577.625 220.675,577.8125 C220.2219,578.2969 220.2219,578.2969 220.0344,578.3906 C219.6125,578.6563 218.925,578.7813 218.1594,578.7813 C216.1125,578.7813 214.8156,577.6875 214.8156,575.9844 L214.8156,574.8906 C214.8156,573.1094 216.0656,571.7969 217.8,571.7969 C218.3781,571.7969 218.9875,571.9531 219.4563,572.2031 C219.9406,572.4844 220.1125,572.7031 220.2063,573.1094 C220.2688,573.5156 220.3,573.6406 220.4406,573.7656 C220.5813,573.9063 220.8156,574.0156 221.0344,574.0156 C221.3,574.0156 221.5656,573.875 221.7375,573.6563 C221.8469,573.5 221.8781,573.3125 221.8781,572.8906 L221.8781,571.4688 C221.8781,571.0313 221.8625,570.9063 221.7688,570.75 C221.6125,570.4844 221.3313,570.3438 221.0344,570.3438 C220.7375,570.3438 220.5344,570.4375 220.3156,570.75 L220.1438,570.6719 Z " fill="#000000"/><text fill="#000000" font-family="sans-serif" font-size="14" lengthAdjust="spacing" textLength="129" x="236.2" y="579.8467">CombinationError</text><line style="stroke:#181818;stroke-width:0.5;" x1="184" x2="387" y1="591" y2="591"/><rect fill="none" height="6" style="stroke:#C82930;stroke-width:1.0;" width="6" x="191" y="601.6484"/><text fill="#000000" font-family="sans-serif" font-size="14" lengthAdjust="spacing" textLength="165" x="203" y="607.9951">COMBINATION_LENGTH</text><line style="stroke:#181818;stroke-width:0.5;" x1="184" x2="387" y1="615.2969" y2="615.2969"/><rect fill="#F24D5C" height="6" style="stroke:#C82930;stroke-width:1.0;" width="6" x="191" y="625.9453"/><text fill="#000000" font-family="sans-serif" font-size="14" lengthAdjust="spacing" textLength="139" x="203" y="632.292">getPossibleColors()</text><rect fill="#F24D5C" height="6" style="stroke:#C82930;stroke-width:1.0;" width="6" x="191" y="642.2422"/><text fill="#000000" font-family="sans-serif" font-size="14" lengthAdjust="spacing" textLength="111" x="203" y="648.5889">isRightLength()</text><rect fill="#F24D5C" height="6" style="stroke:#C82930;stroke-width:1.0;" width="6" x="191" y="658.5391"/><text fill="#000000" font-family="sans-serif" font-size="14" lengthAdjust="spacing" textLength="97" x="203" y="664.8857">isInColorSet()</text><rect fill="#F24D5C" height="6" style="stroke:#C82930;stroke-width:1.0;" width="6" x="191" y="674.8359"/><text fill="#000000" font-family="sans-serif" font-size="14" lengthAdjust="spacing" textLength="157" x="203" y="681.1826">containUniqueColors()</text><rect fill="#F24D5C" height="6" style="stroke:#C82930;stroke-width:1.0;" width="6" x="191" y="691.1328"/><text fill="#000000" font-family="sans-serif" font-size="14" lengthAdjust="spacing" textLength="34" x="203" y="697.4795">isIn()</text><ellipse cx="194" cy="710.4297" fill="#84BE84" rx="3" ry="3" style="stroke:#038048;stroke-width:1.0;"/><text fill="#000000" font-family="sans-serif" font-size="14" lengthAdjust="spacing" textLength="71" x="203" y="713.7764">anyError()</text><ellipse cx="194" cy="726.7266" fill="#84BE84" rx="3" ry="3" style="stroke:#038048;stroke-width:1.0;"/><text fill="#000000" font-family="sans-serif" font-size="14" lengthAdjust="spacing" textLength="179" x="203" y="730.0732">getCombinationLength()</text></g><!--class GamePrinter--><g id="elem_GamePrinter"><rect codeLine="8" fill="#F1F1F1" height="129.4844" id="GamePrinter" rx="2.5" ry="2.5" style="stroke:#181818;stroke-width:0.5;" width="150" x="555.5" y="361.5"/><ellipse cx="582.2" cy="377.5" fill="#ADD1B2" rx="11" ry="11" style="stroke:#181818;stroke-width:1.0;"/><path d="M584.5438,373.1719 C583.6063,372.7344 583.0125,372.5938 582.1375,372.5938 C579.5125,372.5938 577.5125,374.6719 577.5125,377.3906 L577.5125,378.5156 C577.5125,381.0938 579.6219,382.9844 582.5125,382.9844 C583.7313,382.9844 584.8875,382.6875 585.6375,382.1406 C586.2156,381.7344 586.5438,381.2813 586.5438,380.8906 C586.5438,380.4375 586.1531,380.0469 585.6844,380.0469 C585.4656,380.0469 585.2625,380.125 585.075,380.3125 C584.6219,380.7969 584.6219,380.7969 584.4344,380.8906 C584.0125,381.1563 583.325,381.2813 582.5594,381.2813 C580.5125,381.2813 579.2156,380.1875 579.2156,378.4844 L579.2156,377.3906 C579.2156,375.6094 580.4656,374.2969 582.2,374.2969 C582.7781,374.2969 583.3875,374.4531 583.8563,374.7031 C584.3406,374.9844 584.5125,375.2031 584.6063,375.6094 C584.6688,376.0156 584.7,376.1406 584.8406,376.2656 C584.9813,376.4063 585.2156,376.5156 585.4344,376.5156 C585.7,376.5156 585.9656,376.375 586.1375,376.1563 C586.2469,376 586.2781,375.8125 586.2781,375.3906 L586.2781,373.9688 C586.2781,373.5313 586.2625,373.4063 586.1688,373.25 C586.0125,372.9844 585.7313,372.8438 585.4344,372.8438 C585.1375,372.8438 584.9344,372.9375 584.7156,373.25 L584.5438,373.1719 Z " fill="#000000"/><text fill="#000000" font-family="sans-serif" font-size="14" lengthAdjust="spacing" textLength="92" x="598.8" y="382.3467">GamePrinter</text><line style="stroke:#181818;stroke-width:0.5;" x1="556.5" x2="704.5" y1="393.5" y2="393.5"/><line style="stroke:#181818;stroke-width:0.5;" x1="556.5" x2="704.5" y1="401.5" y2="401.5"/><ellipse cx="566.5" cy="415.1484" fill="#84BE84" rx="3" ry="3" style="stroke:#038048;stroke-width:1.0;"/><text fill="#000000" font-family="sans-serif" font-size="14" lengthAdjust="spacing" textLength="97" x="575.5" y="418.4951">printWinner()</text><ellipse cx="566.5" cy="431.4453" fill="#84BE84" rx="3" ry="3" style="stroke:#038048;stroke-width:1.0;"/><text fill="#000000" font-family="sans-serif" font-size="14" lengthAdjust="spacing" textLength="92" x="575.5" y="434.792">printLosser()</text><ellipse cx="566.5" cy="447.7422" fill="#84BE84" rx="3" ry="3" style="stroke:#038048;stroke-width:1.0;"/><text fill="#000000" font-family="sans-serif" font-size="14" lengthAdjust="spacing" textLength="97" x="575.5" y="451.0889">printHeader()</text><ellipse cx="566.5" cy="464.0391" fill="#84BE84" rx="3" ry="3" style="stroke:#038048;stroke-width:1.0;"/><text fill="#000000" font-family="sans-serif" font-size="14" lengthAdjust="spacing" textLength="124" x="575.5" y="467.3857">printFinalResult()</text><ellipse cx="566.5" cy="480.3359" fill="#84BE84" rx="3" ry="3" style="stroke:#038048;stroke-width:1.0;"/><text fill="#000000" font-family="sans-serif" font-size="14" lengthAdjust="spacing" textLength="88" x="575.5" y="483.6826">printBoard()</text></g><!--reverse link Mastermind to YesNoDialog--><g id="link_Mastermind_YesNoDialog"><path codeLine="10" d="M544.4416,81.7755 C555.2716,100.6735 563.571,115.154 577.055,138.682 " fill="none" id="Mastermind-backto-YesNoDialog" style="stroke:#181818;stroke-width:1.0;"/><polygon fill="#181818" points="538.475,71.364,537.9878,78.5586,544.4416,81.7755,544.9288,74.5809,538.475,71.364" style="stroke:#181818;stroke-width:1.0;"/></g><!--reverse link Mastermind to Game--><g id="link_Mastermind_Game"><path codeLine="11" d="M496.5586,81.7757 C486.9446,98.5527 480.588,109.642 468.509,130.718 " fill="none" id="Mastermind-backto-Game" style="stroke:#181818;stroke-width:1.0;"/><polygon fill="#181818" points="502.525,71.364,496.0713,74.581,496.5586,81.7757,503.0124,78.5586,502.525,71.364" style="stroke:#181818;stroke-width:1.0;"/><text fill="#000000" font-family="sans-serif" font-size="13" lengthAdjust="spacing" textLength="24" x="447.5379" y="119.8802">1..n</text></g><!--reverse link CombinationError to Color--><g id="link_CombinationError_Color"><path codeLine="12" d="M285.5,749.215 C285.5,769.059 285.5,777.888 285.5,796.978 " fill="none" id="CombinationError-backto-Color" style="stroke:#181818;stroke-width:1.0;"/><polygon fill="#181818" points="285.5,737.215,281.5,743.215,285.5,749.215,289.5,743.215,285.5,737.215" style="stroke:#181818;stroke-width:1.0;"/><text fill="#000000" font-family="sans-serif" font-size="13" lengthAdjust="spacing" textLength="8" x="277.0875" y="785.7592">4</text></g><!--link SecretCombination to CombinationError--><g id="link_SecretCombination_CombinationError"><path codeLine="13" d="M193.359,499.036 C205.221,518.084 214.9883,533.7698 227.3203,553.5728 " fill="none" id="SecretCombination-to-CombinationError" style="stroke:#181818;stroke-width:1.0;stroke-dasharray:7.0,7.0;"/><polygon fill="#181818" points="230.492,558.666,229.1299,548.9118,227.8489,554.4217,222.339,553.1407,230.492,558.666" style="stroke:#181818;stroke-width:1.0;"/></g><!--reverse link Game to SecretCombination--><g id="link_Game_SecretCombination"><path codeLine="14" d="M325.1832,288.2963 C295.5992,311.1863 271.978,329.462 241.974,352.677 " fill="none" id="Game-backto-SecretCombination" style="stroke:#181818;stroke-width:1.0;"/><polygon fill="#181818" points="334.674,280.953,327.4808,281.4611,325.1832,288.2963,332.3764,287.7883,334.674,280.953" style="stroke:#181818;stroke-width:1.0;"/></g><!--reverse link Game to ProposedCombination--><g id="link_Game_ProposedCombination"><path codeLine="15" d="M422.5,305.148 C422.5,324.73 422.5,333.565 422.5,352.753 " fill="none" id="Game-backto-ProposedCombination" style="stroke:#181818;stroke-width:1.0;"/><polygon fill="none" points="422.5,293.148,418.5,299.148,422.5,305.148,426.5,299.148,422.5,293.148" style="stroke:#181818;stroke-width:1.0;"/></g><!--link Game to GamePrinter--><g id="link_Game_GamePrinter"><path codeLine="16" d="M501.136,293.148 C523.224,315.661 542.7359,335.5482 563.7499,356.9662 " fill="none" id="Game-to-GamePrinter" style="stroke:#181818;stroke-width:1.0;stroke-dasharray:7.0,7.0;"/><polygon fill="#181818" points="567.952,361.249,564.5041,352.0234,564.4503,357.68,558.7937,357.6261,567.952,361.249" style="stroke:#181818;stroke-width:1.0;"/></g><!--link ProposedCombination to CombinationError--><g id="link_ProposedCombination_CombinationError"><path codeLine="17" d="M377.641,499.036 C365.779,518.084 356.0117,533.7698 343.6797,553.5728 " fill="none" id="ProposedCombination-to-CombinationError" style="stroke:#181818;stroke-width:1.0;stroke-dasharray:7.0,7.0;"/><polygon fill="#181818" points="340.508,558.666,348.661,553.1407,343.1511,554.4217,341.8701,548.9118,340.508,558.666" style="stroke:#181818;stroke-width:1.0;"/></g><!--SRC=[XLJBRjim4BphAmIVsXesKA2d70h8hciRi1J1Lf7aP33IHYP2aIv9fSZVTqa9Z2oHxMqnC_kOvQDaHAau9Kg3R2Ylej829oWbwBLedYadcWhUuxaKLw6WcZ9Rqa0VFe7An0zAcAWZu6qJhmKJiYS7cHif7MpISqavZX557-F4NnQBcteZQlPrkUIphlcuSYVuDklRJop5o-NtwJYcbCsShi1I0YdV5YnfAWwTU8J-haDVT_7yoiZxfyzHL_GkNgJ9upafYasQ5oS7beILBICQZg1Qfb7l60aEtWbMWHoIekLwnKZvgiRemuLg6A8IIpJm0RZ1ee5BYvlmWNBkMet9Wr0gIEw0L47o9swAtNWSArQ2oCgCDJrZD77Qh8-Ruho-JrVxB2dszvbVrs-Dy4eq4m5MzoRLeBkCFTSX3TvlMlDETW2jhLEVSjwD46Anbp7fkrJOvJg5LK0xb_2x1MMg1GIagi8apd4W_yf6GS9OcBUNpLYPF5dqCJYdys6JROkTLuOzShnIz9c1VT_cslfqL1rfVT47uBM-13LxRekSx8Pzab9mJIZ_nIbkxZyDzznFpGb_jt60hczEt4qS3Vu_qy0UdVboHZZXwW_-EIDKaJT8B8EbRhavLSdB2vKDzdi37vr17U28UYr4Zhz1KkDQkhDariRHHLiNhLpqvAArYzA_]--></g></svg>